<?xml version="1.0" standalone="no"?>
<!DOCTYPE svg PUBLIC "-//W3C//DTD SVG 1.1//EN" "http://www.w3.org/Graphics/SVG/1.1/DTD/svg11.dtd" >
<!--
2013-9-30: Created.
-->
<svg>
<metadata>
Created by iconfont
</metadata>
<defs>

<font id="iconfont" horiz-adv-x="1024" >
  <font-face
    font-family="iconfont"
    font-weight="500"
    font-stretch="normal"
    units-per-em="1024"
    ascent="896"
    descent="-128"
  />
    <missing-glyph />
    
    <glyph glyph-name="x" unicode="x" horiz-adv-x="1001"
d="M281 543q-27 -1 -53 -1h-83q-18 0 -36.5 -6t-32.5 -18.5t-23 -32t-9 -45.5v-76h912v41q0 16 -0.5 30t-0.5 18q0 13 -5 29t-17 29.5t-31.5 22.5t-49.5 9h-133v-97h-438v97zM955 310v-52q0 -23 0.5 -52t0.5 -58t-10.5 -47.5t-26 -30t-33 -16t-31.5 -4.5q-14 -1 -29.5 -0.5
t-29.5 0.5h-32l-45 128h-439l-44 -128h-29h-34q-20 0 -45 1q-25 0 -41 9.5t-25.5 23t-13.5 29.5t-4 30v167h911zM163 247q-12 0 -21 -8.5t-9 -21.5t9 -21.5t21 -8.5q13 0 22 8.5t9 21.5t-9 21.5t-22 8.5zM316 123q-8 -26 -14 -48q-5 -19 -10.5 -37t-7.5 -25t-3 -15t1 -14.5
t9.5 -10.5t21.5 -4h37h67h81h80h64h36q23 0 34 12t2 38q-5 13 -9.5 30.5t-9.5 34.5q-5 19 -11 39h-368zM336 498v228q0 11 2.5 23t10 21.5t20.5 15.5t34 6h188q31 0 51.5 -14.5t20.5 -52.5v-227h-327z" />
    

    
    <glyph glyph-name="xiangxia" unicode="&#58889;" d="M185.884 568.45 146.3 528.867 512.021 163.221 877.7 528.867 838.117 568.45 511.997 242.324Z"  horiz-adv-x="1024" />

    
    <glyph glyph-name="msnui-dianpu" unicode="&#59083;" d="M60.976 454.112c0-47.612 36.143-87.286 84.886-98.74v-336.182h-56.59c-15.589 0-28.296-11.453-28.296-25.594s12.707-25.579 28.296-25.579h848.866c15.695 0 28.295 11.454 28.295 25.579s-12.601 25.579-28.296 25.579h-56.59v336.196c48.743 11.454 84.886 51.128 84.886 98.74v25.579h-905.459v-25.579zM626.887 351.781c62.567 0 113.183 45.816 113.183 102.332 0-47.612 36.143-87.286 84.886-98.74v-336.182h-424.433v332.59c62.567 0 113.183 45.816 113.183 102.332 0-56.516 50.721-102.332 113.183-102.332zM372.227 355.371v-336.182h-169.773v336.182c48.743 11.454 84.886 51.128 84.886 98.74 0-47.612 36.143-87.286 84.886-98.74zM853.253 709.949h-679.093l-113.183-204.664h905.459l-113.183 204.664zM300.048 653.087l-56.59-102.332c-2.536-4.497-7.516-7.093-12.707-7.093-2.097 0-4.256 0.392-6.293 1.343-6.957 3.138-9.84 10.851-6.293 17.143l56.59 102.332c3.532 6.293 11.982 8.843 18.953 5.75 7.002-3.154 9.764-10.851 6.339-17.143zM413.231 653.087l-56.59-102.332c-2.536-4.497-7.516-7.093-12.707-7.093-2.098 0-4.256 0.392-6.293 1.343-6.957 3.138-9.84 10.851-6.293 17.143l56.59 102.332c3.532 6.293 12.043 8.843 18.956 5.75 7.002-3.154 9.764-10.851 6.339-17.143zM527.862 556.444c0-7.093-6.308-12.797-14.155-12.797-7.802 0-14.155 5.689-14.155 12.797v102.332c0 7.093 6.353 12.797 14.155 12.797 7.847 0 14.155-5.689 14.155-12.797v-102.332zM690.33 545.246c-2.203-1.102-4.527-1.6-6.851-1.6-4.98 0-9.84 2.399-12.374 6.64l-61.903 102.332c-3.758 6.202-1.207 13.989 5.629 17.339 6.746 3.395 15.468 1.207 19.241-5.040l61.903-102.332c3.637-6.188 1.207-13.989-5.644-17.339zM802.969 545.005c-2.008-0.951-4.090-1.343-6.308-1.343-5.192 0-10.172 2.596-12.601 7.093l-56.59 102.332c-3.532 6.293-0.665 13.989 6.293 17.143 6.867 3.138 15.468 0.604 19.015-5.75l56.59-102.332c3.426-6.293 0.679-14.004-6.399-17.143zM301.496 168.801v58.946c-8.301 4.512-14.155 12.3-14.155 21.686 0 14.141 12.707 25.579 28.296 25.579 15.695 0 28.296-11.454 28.296-25.579 0-9.387-5.811-17.189-14.155-21.7v-58.946c8.344-4.512 14.155-12.3 14.155-21.7 0-14.141-12.601-25.579-28.296-25.579-15.589 0-28.296 11.454-28.296 25.579 0 9.402 5.855 17.203 14.155 21.717zM174.158 761.123c0 14.141 12.707 25.579 28.296 25.579h622.502c15.695 0 28.296-11.439 28.296-25.579s-12.601-25.579-28.296-25.579h-622.502c-15.589-0.015-28.296 11.439-28.296 25.579zM556.912 214.814l-19.996 18.094 80.027 72.362 19.996-18.094-80.027-72.362zM556.912 142.453l-19.996 18.094 160.041 144.723 19.996-18.094-160.041-144.723zM696.97 232.908l19.996-18.094-80.027-72.362-19.996 18.094 80.027 72.362z"  horiz-adv-x="1024" />

    
    <glyph glyph-name="shop" unicode="&#58923;" d="M5.821 457.96c0-53.323 40.478-97.755 95.068-110.584l0-376.505-63.378 0c-17.46 0-31.69-12.827-31.69-28.665 0-15.836 14.23-28.646 31.69-28.646l950.684 0c17.577 0 31.69 12.827 31.69 28.646s-14.112 28.648-31.691 28.648l-63.377 0 0 376.52c54.59 12.829 95.068 57.261 95.068 110.584l0 28.647-1014.064 0 0-28.646zM639.611 343.355c70.072 0 126.758 51.311 126.758 114.605 0-53.323 40.478-97.755 95.068-110.584l0-376.505-475.342 0 0 372.483c70.072 0 126.758 51.311 126.758 114.605 0-63.295 56.805-114.605 126.758-114.605zM354.405 347.375l0-376.505-190.136 0 0 376.505c54.59 12.829 95.068 57.261 95.068 110.584 0.001-53.322 40.478-97.754 95.068-110.584zM893.127 744.482l-760.547 0-126.759-229.211 1014.064 0-126.758 229.211zM273.568 680.799l-63.379-114.606c-2.839-5.037-8.418-7.944-14.23-7.944-2.35 0-4.767 0.439-7.049 1.504-7.791 3.516-11.02 12.152-7.048 19.2l63.378 114.606c3.955 7.048 13.42 9.905 21.228 6.44 7.842-3.532 10.935-12.152 7.099-19.2zM400.325 680.799l-63.378-114.606c-2.84-5.037-8.418-7.944-14.231-7.944-2.35 0-4.766 0.439-7.048 1.504-7.791 3.516-11.02 12.152-7.049 19.2l63.379 114.606c3.955 7.048 13.487 9.905 21.227 6.44 7.844-3.532 10.936-12.152 7.099-19.2zM528.706 572.565c0-7.944-7.065-14.332-15.853-14.332-8.738 0-15.853 6.372-15.853 14.332l0 114.606c0 7.944 7.115 14.332 15.853 14.332 8.788 0 15.853-6.372 15.853-14.332l0-114.606zM710.663 560.025c-2.467-1.234-5.07-1.792-7.673-1.792-5.577 0-11.02 2.687-13.859 7.436l-69.329 114.606c-4.208 6.946-1.352 15.667 6.305 19.419 7.555 3.803 17.324 1.352 21.549-5.646l69.327-114.605c4.074-6.93 1.353-15.668-6.32-19.419zM836.812 559.754c-2.247-1.065-4.58-1.504-7.064-1.504-5.814 0-11.391 2.907-14.112 7.944l-63.379 114.605c-3.955 7.048-0.744 15.668 7.048 19.2 7.691 3.515 17.325 0.675 21.296-6.44l63.379-114.606c3.835-7.048 0.759-15.684-7.167-19.199zM275.19 138.429l0 66.016c-9.295 5.053-15.852 13.775-15.852 24.285 0 15.838 14.23 28.648 31.689 28.648 17.577 0 31.69-12.829 31.69-28.648 0-10.51-6.506-19.249-15.853-24.304l0-66.016c9.347-5.053 15.853-13.775 15.853-24.304 0-15.838-14.112-28.646-31.69-28.646-17.459 0-31.689 12.827-31.689 28.646 0 10.529 6.557 19.267 15.852 24.322zM132.58 801.795c0 15.837 14.23 28.647 31.69 28.647l697.168 0c17.577 0 31.69-12.811 31.69-28.647s-14.112-28.647-31.69-28.647l-697.168 0c-17.46-0.017-31.69 12.811-31.69 28.647zM561.241 189.96l-22.394 20.265 89.626 81.039 22.394-20.265-89.626-81.039zM561.241 108.919l-22.394 20.265 179.235 162.08 22.394-20.265-179.235-162.08zM718.099 210.225l22.394-20.265-89.626-81.041-22.394 20.265 89.626 81.041z"  horiz-adv-x="1024" />

    
    <glyph glyph-name="31guanzhudianpu" unicode="&#58880;" d="M821.673945 693.673945c-170.763199 170.761152-448.584692 170.761152-619.346867 0-170.763199-170.763199-170.763199-448.584692 0-619.346867 170.762175-170.763199 448.582645-170.763199 619.346867 0C992.435097 245.089253 992.435097 522.910747 821.673945 693.673945zM777.236873 118.765173c-146.255015-146.255015-384.239198-146.231479-530.472723 0-146.252968 146.255015-146.252968 384.217708 0.002047 530.470677 146.231479 146.231479 384.215662 146.255015 530.470677 0C923.468352 503.001301 923.468352 264.997676 777.236873 118.765173zM735.871767 413.883611l-191.777815 0.310062 1.040702 190.250018c0.10847 17.274432-13.82589 31.343869-31.100322 31.452339-17.276479 0.110517-31.365358-13.845333-31.454386-31.100322l-1.062192-190.492542-188.921767 0.286526c-17.297968 0-31.321356-13.934361-31.321356-31.231305-0.023536-17.274432 13.957897-31.299867 31.233352-31.322379l188.656731-0.286526-1.01819-188.900278c-0.089028-17.297968 13.823843-31.341822 31.100322-31.454386 8.715499-0.042979 16.58984 3.452635 22.296819 9.159614 5.617951 5.615904 9.092076 13.381775 9.157567 21.940708l1.038656 189.146894 192.040804-0.312108c8.650007-0.019443 16.479323 3.474125 22.164812 9.157567 5.662977 5.662977 9.134031 13.472849 9.155521 22.075785C767.127631 399.838733 753.169735 413.840632 735.871767 413.883611z"  horiz-adv-x="1024" />

    
    <glyph glyph-name="31shoucangdedianpu" unicode="&#58881;" d="M803.489282 671.668769C725.819319 749.369432 622.353852 792.150794 512.215406 792.150794c-110.168122 0-213.57526-42.781362-291.246247-120.482025-77.700663-77.686337-120.482025-181.107801-120.482025-291.246247 0-110.181425 42.782386-213.589586 120.482025-291.290249 77.670987-77.670987 181.078125-120.437 291.246247-120.437 110.138446 0 213.603913 42.766013 291.2749 120.437C964.056258 249.725854 964.056258 511.059837 803.489282 671.668769M765.62593 126.996648c-67.574025-67.603701-157.547199-104.801904-253.411547-104.801904-95.834672 0-185.837522 37.198204-253.441223 104.801904-139.718135 139.704832-139.718135 367.119285 0 506.823094 67.603701 67.560722 157.606551 104.815207 253.441223 104.815207 95.864348 0 185.836499-37.254485 253.411547-104.815207C833.200978 566.25902 870.427834 476.257194 870.427834 380.422522 870.427834 284.542824 833.200978 194.540997 765.62593 126.996648M750.308059 446.516846c-0.349971 1.566682-0.754177 2.87242-1.192152 3.829212l-39.284725 97.807606c-7.485485 22.370497-29.073152 36.849256-54.923914 36.878932L378.255415 585.032596c-25.532513 0-46.017056-13.768585-53.270251-35.484166l-42.533722-100.507088c-0.233314-0.768503-0.522909-1.841951-0.639566-2.436492-3.25002-10.038634-4.874007-20.410865-4.874007-30.726815 0-26.025747 10.531867-51.254338 28.898167-69.590961l0.115634-144.549164c0-26.982538 21.992897-48.946782 48.975435-48.946782l316.373531 0.202615c27.01119 0.056282 48.946782 22.079878 48.946782 49.033763l-0.059352 139.036613c22.166859 18.7132 34.846646 46.00273 34.846646 75.176167C755.093039 426.337247 753.440399 436.797483 750.308059 446.516846M671.242306 198.458213l-316.314179-0.204661c-1.972934 0-3.538593 1.567705-3.538593 3.483334l-0.116657 119.190613c7.602142-1.683339 15.667841-2.552126 24.13877-2.552126 26.752294 0.086981 52.139497 10.966773 70.505797 30.029944 18.336624-18.889209 43.550888-29.68202 70.301136-29.857005 26.521027 0.232291 51.560306 11.0558 69.808926 29.943986 18.396999-19.063171 43.811832-29.886681 70.767763-29.886681 6.207375 0.060375 12.242835 0.553609 17.986653 1.452071l0.029676-118.059859C674.811598 200.025918 673.186587 198.458213 671.242306 198.458213M682.064792 369.671667c-6.730285-3.684926-15.289218-5.541203-25.329898-5.628184-18.454304 0-35.250852 9.401114-44.680619 24.589025-0.871857 1.842974-2.467191 5.237281-5.454222 8.53028-3.570315 4.018523-10.013051 8.791224-20.543895 8.791224-8.268314 0-16.013719-3.409656-20.62883-8.965186-2.698458-3.060709-4.235464-6.063089-4.960988-7.760754-9.691733-15.667841-26.28669-25.097608-44.276413-25.242917-18.280342 0.11461-34.991955 9.575076-44.450375 24.806989-0.7552 1.566682-2.321882 4.830005-4.758374 7.544837-4.845355 5.78782-12.592806 9.109472-21.297049 9.109472-8.269337 0-15.841803-3.119037-20.077268-8.167007-2.989077-3.322675-4.643764-6.587022-5.368264-8.341992-9.777691-15.696494-26.605961-25.067932-44.88528-25.12626-9.865695 0-18.249643 1.769296-24.951275 5.338588-17.292851 9.197476-28.057009 27.099195-28.057009 46.698578 0 5.889127 0.986467 11.707646 2.929726 17.510816 0.173962 0.462534 0.347924 1.029446 0.290619 1.029446 0 0 0-0.028653-0.058328-0.085958l41.896202 99.055017c0.725524 2.175549 2.089591 6.180769 10.822486 6.180769l276.362258 0.027629c6.440689-0.376577 10.793834-1.666966 12.67774-7.122211l38.764885-96.357582 0.639566-2.64013c1.971911-5.613858 2.960425-11.44568 2.960425-17.2335C709.65722 396.844539 699.067025 379.015476 682.064792 369.671667"  horiz-adv-x="1024" />

    
    <glyph glyph-name="unie64d" unicode="&#59056;" d="M539.712 884c-282.784 0-512-229.248-512-512s229.216-512 512-512c282.752 0 512 229.248 512 512s-229.248 512-512 512zM270.528-36.96c1.536-0.928 2.976-1.856 4.608-2.816-0.032 1.728-0.128 3.424-0.128 5.12 0 140.992 110.304 256.192 249.312 264.128 5.056-0.32 10.112-0.544 15.264-0.544s10.208 0.224 15.264 0.544c139.008-7.904 249.344-123.104 249.344-264.128 0-1.824-0.064-3.616-0.128-5.44-76.096-49.888-166.816-78.976-264.32-78.976-99.584 0-192.128 30.272-269.184 82.112zM355.296 448.192c0 99.456 82.496 180.064 184.288 180.064s184.288-80.608 184.288-180.064-82.528-180.064-184.288-180.064c-101.792 0-184.288 80.608-184.288 180.064zM835.712-17.472c-5.824 124.448-88.384 228.768-201.408 266.848 76.608 34.912 129.696 110.784 129.696 198.816 0 121.12-100.48 219.296-224.416 219.296s-224.416-98.176-224.416-219.296c0-88.032 53.12-163.904 129.696-198.816-112.992-38.08-195.456-142.336-201.376-266.72-115.2 89.568-189.504 230.048-189.504 388.096 0 270.528 217.44 489.856 485.728 489.856 268.224 0 485.728-219.296 485.728-489.856 0-158.144-74.4-298.688-189.728-388.256z"  horiz-adv-x="1056" />

    
    <glyph glyph-name="gerenzhongxinwodedingdan" unicode="&#58893;" d="M768.672228 625.71048l-93.086906 0 0-11.636247c0-38.555053-31.24912-69.815436-69.815436-69.815436L419.596073 544.258797c-38.555053 0-69.815436 31.260383-69.815436 69.815436l0 11.636247-93.086906 0c-38.555053 0-69.815436-31.260383-69.815436-69.815436l0-558.510175c0-38.566316 31.259359-69.815436 69.815436-69.815436l511.978497 0c38.566316 0 69.815436 31.24912 69.815436 69.815436L838.487664 555.895044C838.487664 594.450097 807.238544 625.71048 768.672228 625.71048zM675.585321 113.743247 349.780637 113.743247c-12.851684 0-23.272495 10.408523-23.272495 23.272495 0 12.840421 10.419786 23.272495 23.272495 23.272495l325.804684 0c12.840421 0 23.272495-10.432074 23.272495-23.272495C698.857816 124.15177 688.425742 113.743247 675.585321 113.743247zM675.585321 253.374118 349.780637 253.374118c-12.851684 0-23.272495 10.408523-23.272495 23.271471 0 12.840421 10.419786 23.261231 23.272495 23.261231l325.804684 0c12.840421 0 23.272495-10.42081 23.272495-23.261231C698.857816 263.782641 688.425742 253.374118 675.585321 253.374118zM675.585321 392.992702 349.780637 392.992702c-12.851684 0-23.272495 10.419786-23.272495 23.271471s10.419786 23.271471 23.272495 23.271471l325.804684 0c12.840421 0 23.272495-10.419786 23.272495-23.271471S688.425742 392.992702 675.585321 392.992702zM431.23232 579.166515l162.902342 0c19.294422 0 34.907718 15.635823 34.907718 34.907718l0 23.272495c0 19.283158-15.613296 34.907718-34.907718 34.907718L431.23232 672.254445c-19.283158 0-34.907718-15.62456-34.907718-34.907718l0-23.272495C396.324602 594.802338 411.949162 579.166515 431.23232 579.166515z"  horiz-adv-x="1024" />

    
    <glyph glyph-name="daifukuan" unicode="&#58884;" d="M798.367635-1.077286 159.108253-1.077286c-52.906977 0-95.959515 43.063795-95.959515 95.959515L63.148737 673.118793c0 52.910047 43.052538 95.956446 95.959515 95.956446l642.200364 0c52.910047 0 95.958492-43.046399 95.958492-95.956446l0-94.002954c0-17.657148-14.300704-31.988552-31.988552-31.988552-17.683754 0-31.978319 14.331403-31.978319 31.988552l0 94.002954c0 17.619286-14.334473 31.988552-31.992645 31.988552L159.108253 705.107345c-17.629519 0-31.988552-14.369266-31.988552-31.988552l0-578.23554c0-17.654079 14.359033-31.978319 31.988552-31.978319l639.258359 0c17.658172 0 31.988552 14.32424 31.988552 31.978319l0 98.896404c0 17.693987 14.292518 31.988552 31.982412 31.988552s31.994692-14.294564 31.994692-31.988552l0-98.896404C894.332267 41.986509 851.303264-1.077286 798.367635-1.077286L798.367635-1.077286zM691.725826 385.169639c0 0.024559 0.00614 0.051165 0.00614 0.075725l-0.00614 0c-0.044002 8.142447-3.409656 16.223496-9.165754 21.989827-5.8001 5.792936-13.95278 9.165754-22.145369 9.165754-8.194636 0-16.349363-3.372817-22.141276-9.165754-5.760191-5.76633-9.121751-13.847379-9.165754-21.989827l-0.00614 0c0-0.024559 0-0.051165 0-0.075725 0-0.022513 0-0.048095 0-0.085958l0.00614 0c0.044002-8.142447 3.405563-16.213263 9.165754-21.978571 5.791913-5.801123 13.936407-9.16473 22.141276-9.16473 8.192589 0 16.34527 3.363607 22.13923 9.16473 5.756097 5.765307 9.127891 13.836123 9.171893 21.978571l0.00614 0C691.731966 385.122567 691.725826 385.147126 691.725826 385.169639zM903.146003 257.90514 572.486094 257.90514c-31.336706 0-56.831356 25.495674-56.831356 56.833403L515.654738 455.957869c0 31.337729 25.494651 56.83238 56.831356 56.83238l330.659909 0c31.336706 0 56.831356-25.494651 56.831356-56.83238L959.977359 314.738543C959.977359 283.400814 934.482709 257.90514 903.146003 257.90514zM577.652767 319.904193l320.324516 0L897.977283 450.791196 577.652767 450.791196 577.652767 319.904193z"  horiz-adv-x="1024" />

    
    <glyph glyph-name="gengduo" unicode="&#58894;" d="M175.79019 272.024719c-61.737086 0-111.975281 50.242288-111.975281 111.974257 0 61.737086 50.238195 111.975281 111.975281 111.975281 61.730946 0 111.974257-50.238195 111.974257-111.975281C287.764448 322.267007 237.521137 272.024719 175.79019 272.024719L175.79019 272.024719zM511.708869 272.024719c-61.730946 0-111.975281 50.242288-111.975281 111.974257 0 61.737086 50.244334 111.975281 111.975281 111.975281 61.737086 0 111.975281-50.238195 111.975281-111.975281C623.683127 322.267007 573.445956 272.024719 511.708869 272.024719L511.708869 272.024719zM847.632665 272.024719c-61.737086 0-111.975281 50.242288-111.975281 111.974257 0 61.737086 50.238195 111.975281 111.975281 111.975281 61.730946 0 111.969141-50.238195 111.969141-111.975281C959.601806 322.267007 909.363611 272.024719 847.632665 272.024719L847.632665 272.024719zM847.632665 272.024719"  horiz-adv-x="1024" />

    
    <glyph glyph-name="gouwuche" unicode="&#58897;" d="M352.53359 66.077184c-35.238572 0-63.782675-28.54615-63.782675-63.786769 0-35.237549 28.545126-63.781652 63.782675-63.781652 35.240619 0 63.781652 28.545126 63.781652 63.781652C416.315242 37.532057 387.775232 66.077184 352.53359 66.077184L352.53359 66.077184 352.53359 66.077184zM799.016411 66.077184c-35.240619 0-63.787792-28.54615-63.787792-63.786769 0-35.237549 28.54615-63.781652 63.787792-63.781652 35.235502 0 63.781652 28.545126 63.781652 63.781652C862.798063 37.532057 834.251913 66.077184 799.016411 66.077184L799.016411 66.077184 799.016411 66.077184zM862.28641 97.965451 344.276533 97.965451c-45.957705 0-86.36295 36.354999-91.976808 82.759889l-54.087872 380.784516L167.436942 739.464851c-1.913583 15.526625-16.074094 28.223808-29.913287 28.223808l-40.627303 0c-17.607006 0-31.894408 14.287401-31.894408 31.887244 0 17.605983 14.287401 31.894408 31.894408 31.894408l40.627303 0c46.530756 0 87.383186-36.356023 93.028766-82.760912l30.710442-177.281659 54.313-382.409526c1.784646-14.799054 15.176654-27.270087 28.700669-27.270087l518.010901 0c17.635659 0 31.893384-14.253632 31.893384-31.888268C894.179794 112.223177 879.923092 97.965451 862.28641 97.965451L862.28641 97.965451zM384.140449 225.533872c-16.549931 0-30.550807 12.754488-31.766494 29.562293-1.304715 17.572214 11.895935 32.848129 29.435403 34.122145l432.643628 31.895431c15.878642 0.092098 29.27372 12.564154 31.026644 26.754341l50.228985 287.404756c1.27504 10.715039-1.687432 22.452361-8.096399 29.722952-4.116761 4.656043-9.28548 7.016811-15.309684 7.016811L320.133669 672.012599c-17.605983 0-31.893384 14.287401-31.893384 31.894408 0 17.599843 14.287401 31.887244 31.893384 31.887244l552.167838 0c24.364921 0 46.749744-10.107195 63.046918-28.511357 18.627243-21.017686 27.172873-50.6424 23.440875-81.352843l-50.258661-287.439548c-5.421476-44.712341-45.797046-81.068364-91.753727-81.068364l-430.278767-31.795147C385.702014 225.563548 384.903835 225.533872 384.140449 225.533872L384.140449 225.533872zM384.140449 225.533872"  horiz-adv-x="1024" />

    
    <glyph glyph-name="find-fav" unicode="&#58961;" d="M512-64c-60.5 0-119.1 11.8-174.4 35.2-53.4 22.6-101.3 54.9-142.4 96-41.1 41.1-73.4 89-96 142.4-23.4 55.3-35.2 113.9-35.2 174.4s11.8 119.1 35.2 174.4c22.6 53.4 54.9 101.3 96 142.4s89 73.4 142.4 96c55.3 23.4 113.9 35.2 174.4 35.2s119.1-11.8 174.4-35.2c53.3-22.6 101.3-54.9 142.4-96s73.4-89 96-142.4c23.4-55.2 35.2-113.9 35.2-174.4s-11.8-119.1-35.2-174.4c-22.6-53.3-54.9-101.3-96-142.4-41.1-41.1-89-73.4-142.4-96-55.3-23.3-113.9-35.2-174.4-35.2zM512 786.4c-221.9 0-402.4-180.5-402.4-402.4s180.5-402.4 402.4-402.4c221.9 0 402.4 180.5 402.4 402.4 0 221.9-180.5 402.4-402.4 402.4zM759.8 461.2l-48.3 64.3c-1.9 2.5-4.1 4.7-6.5 6.8v76.9c0 17.8-14.4 32.2-32.2 32.2l-321.8-0c-17.8 0-32.2-14.4-32.2-32.2v-76.9c-2.3-2.1-4.6-4.2-6.4-6.8l-48.2-64.3c-6.3-8.3-9.7-18.6-9.7-29v-16.1c0-26.6 21.7-48.2 48.3-48.2v0-209.1c0-17.8 14.4-32.2 32.2-32.2l354 0c17.8 0 32.2 14.4 32.2 32.2v209.1c26.6 0 48.3 21.6 48.3 48.2v16.1c0 10.4-3.4 20.7-9.7 29v0zM672.9 609.2v-64.3h-321.9v64.3h321.9zM418.5 400.1h-67.4l64.4 112.6h35.2l-32.2-112.6zM467.5 512.7h36.5v-112.6h-68.7l32.2 112.6zM520 512.7h36.5l32.2-112.6h-68.7v112.6zM573.2 512.7h35.2l64.4-112.6h-67.4l-32.2 112.6zM286.7 416.2v16.1c0 3.5 1.1 6.9 3.2 9.6l48.3 64.3c3 4.1 7.8 6.5 12.9 6.5h45.9l-64.4-112.6h-29.8c-8.9 0-16.1 7.2-16.1 16.1v0zM576.4 158.8h-120.7v160.9h120.7v-160.9zM689 158.8h-96.6v160.9c0 8.9-7.2 16.1-16.1 16.1l-120.6-0c-8.9 0-16.1-7.2-16.1-16.1v-160.9h-104.6v209.1h354v-209.1zM737.3 416.2c0-8.9-7.2-16.1-16.1-16.1h-29.8l-64.4 112.6h45.9c5.1 0 9.8-2.4 12.9-6.5l48.3-64.3c2.1-2.8 3.2-6.1 3.2-9.6v-16.1zM737.3 416.2z"  horiz-adv-x="1024" />

    
    <glyph glyph-name="tuikuanshouhou" unicode="&#58995;" d="M169.225681 231.218338c-6.246261 0-12.518105 2.511193-18.127869 7.240915l-89.149413 72.652693c-9.242502 7.814989-13.640672 19.428491-11.652388 30.468942 1.733481 9.688663 8.375761 17.49035 17.758456 20.881586l111.599727 40.272215c10.92584 3.926426 23.036669 0.509606 30.621415-8.567119 6.246261-7.470135 8.936533-17.771759 7.189749-27.549449l-23.151279-111.178125C191.688275 240.869139 181.820534 231.218338 169.225681 231.218338zM847.517031 404.341281c-7.215332 0-13.053294 5.838985-13.053294 13.054317 0 135.860271-91.420129 255.733429-222.307132 291.517423-6.961552 1.899256-11.05273 9.076726-9.153474 16.037255 1.912559 6.960529 9.165754 11.001565 16.037255 9.153474 142.209886-38.882566 241.531985-169.107489 241.531985-316.709175C860.572372 410.180266 854.733387 404.341281 847.517031 404.341281zM549.880237 719.112314c-0.2415 0-0.485047 0-0.727571 0.025583-5.596462 0.305969-11.230786 0.459464-16.878412 0.459464-7.215332 0-13.054317 5.838985-13.054317 13.054317s5.838985 13.054317 13.054317 13.054317c6.131651 0 12.225439-0.178055 18.307971-0.51063 7.202029-0.382717 12.709463-6.53995 12.313443-13.743002C562.526255 724.505138 556.764018 719.112314 549.880237 719.112314zM521.298272 2.295532c-102.037954 0-200.519919 36.905538-277.277094 103.911628-10.861372 9.486048-11.982916 25.981744-2.498914 36.843116 9.497305 10.849092 26.007327 11.983939 36.843116 2.49789 67.24759-58.706053 153.516396-91.036389 242.932891-91.036389 203.872271 0 369.729739 165.857469 369.729739 369.729739 0 203.872271-165.856445 369.742019-369.729739 369.742019-203.858968 0-369.716436-165.869748-369.716436-369.742019 0-15.820314 1.006933-31.743982 2.996241-47.321772 1.835811-14.303774-8.273431-27.383674-22.577205-29.207206-14.252609-1.899256-27.383674 8.286734-29.207206 22.577205-2.281973 17.784038-3.429099 35.925211-3.429099 53.951773 0 232.671177 189.275831 421.960311 421.933705 421.960311S943.246303 656.913717 943.246303 424.24254C943.246303 191.583642 753.956146 2.295532 521.298272 2.295532zM465.970152 427.989887l-93.228311 156.218948c-3.849678 6.845918-5.78782 13.500479-5.78782 19.925818 0 6.42534 2.792603 11.57564 8.363482 15.425318 5.570879 4.28356 12.110829 6.437619 19.606547 6.437619 7.496741 0 14.240329-5.1503 20.25737-15.437597l104.792695-176.795589 104.790648 176.795589c6.42534 10.708899 12.95301 16.075117 19.60757 16.075117 6.628978 0 13.168927-2.14178 19.60757-6.42534 6.844895-4.295839 10.287297-9.31925 10.287297-15.107069 0-5.78782-2.369977-12.761652-7.075139-20.894889l-93.217055-156.218948 74.565253 0c17.147542 0 25.726941-8.579399 25.726941-25.725918 0-16.71366-8.579399-25.063839-25.726941-25.063839l-102.217033 0 0-40.501436 102.217033 0c17.147542 0 25.726941-8.580422 25.726941-25.726941 0-16.712637-8.579399-25.062815-25.726941-25.062815l-102.217033 0 0-84.866876c0-11.57564-1.721201-19.72218-5.136997-24.425296-3.442402-4.730745-10.505261-7.076162-21.213137-7.076162-10.722202 0-17.911952 2.345418-21.545712 7.076162-3.64604 4.703115-5.456269 12.849656-5.456269 24.425296l0 84.866876-100.941993 0c-17.146519 0-25.713638 8.566096-25.713638 25.712615 0 9.42158 2.026146 15.96153 6.106068 19.60757 4.066619 3.632737 10.172687 5.469572 18.319228 5.469572l102.229313 0 0 40.501436-100.941993 0c-17.146519 0-25.713638 8.567119-25.713638 25.713638 0 9.42158 2.026146 15.960507 6.106068 19.606547 4.066619 3.63376 10.172687 5.469572 18.319228 5.469572L465.970152 427.988864z"  horiz-adv-x="1024" />

    
    <glyph glyph-name="iconset0421" unicode="&#59180;" d="M512 853.333333C251.733333 853.333333 42.666667 644.266667 42.666667 384s209.066667-469.333333 469.333333-469.333333c258.133333 0 469.333333 209.066667 469.333333 469.333333S770.133333 853.333333 512 853.333333zM512-42.666667C277.333333-42.666667 85.333333 149.333333 85.333333 384S277.333333 810.666667 512 810.666667c234.666667 0 426.666667-192 426.666667-426.666667S746.666667-42.666667 512-42.666667zM746.666667 469.333333c-6.4 0-10.666667-2.133333-14.933333-6.4L512 262.4l-219.733333 200.533333C288 467.2 283.733333 469.333333 277.333333 469.333333c-12.8 0-21.333333-8.533333-21.333333-21.333333 0-6.4 2.133333-10.666667 6.4-14.933333l234.666667-213.333333c4.266667-4.266667 8.533333-6.4 14.933333-6.4 6.4 0 10.666667 2.133333 14.933333 6.4l234.666667 213.333333c4.266667 4.266667 6.4 8.533333 6.4 14.933333C768 460.8 759.466667 469.333333 746.666667 469.333333z"  horiz-adv-x="1024" />

    
    <glyph glyph-name="xiangyou-copy" unicode="&#58916;" d="M296.751 767.212c12.879 12.858 33.733 12.858 46.609 0l392.34-358.352c6.885-6.865 9.79-15.95 9.342-24.905 0.449-8.956-2.453-18.061-9.342-24.905l-392.34-358.352c-12.876-12.834-33.729-12.834-46.609 0-12.876 12.835-12.876 33.667 0 46.505l368.697 336.757-368.697 336.775c-12.878 12.834-12.878 33.645 0 46.479z"  horiz-adv-x="1025" />

    
    <glyph glyph-name="chongzhi" unicode="&#58997;" d="M275.2 313.6v-57.6h211.2v-192h57.6v192h211.2v57.6h-217.6v108.8h211.2v57.6h-166.4l121.6 121.6-38.4 38.4-153.6-147.2-153.6 153.6-38.4-44.8 121.6-121.6h-166.4v-57.6h211.2v-115.2l-211.2 6.4zM512 832c243.2 0 448-198.4 448-448s-198.4-448-448-448-448 198.4-448 448 198.4 448 448 448M512 896c-281.6 0-512-230.4-512-512s230.4-512 512-512 512 230.4 512 512-230.4 512-512 512v0z"  horiz-adv-x="1024" />

    
    <glyph glyph-name="duihaocheckmark17" unicode="&#59248;" d="M730.688 566.88 432 268.192l-138.656 138.688c-12.192 12.192-32 12.192-44.192 0-12.192-12.192-12.192-32 0-44.192l156.96-156.96c1.056-1.504 1.696-3.232 3.04-4.576 6.304-6.304 14.592-9.216 22.848-8.992 8.256-0.192 16.576 2.688 22.88 8.992 1.344 1.344 1.984 3.072 3.04 4.576l316.96 316.96c12.192 12.192 12.192 32 0 44.192C762.656 579.072 742.88 579.072 730.688 566.88zM512 896C229.216 896 0 666.784 0 384c0-282.784 229.216-512 512-512 282.752 0 512 229.216 512 512C1024 666.784 794.784 896 512 896zM512-64C264.576-64 64 136.576 64 384 64 631.424 264.576 832 512 832c247.424 0 448-200.576 448-448C960 136.576 759.424-64 512-64z"  horiz-adv-x="1024" />

    
    <glyph glyph-name="5" unicode="&#58885;" d="M512-128c-281.6 0-512 230.4-512 512s230.4 512 512 512 512-230.4 512-512c0-19.2-12.8-32-32-32S960 364.8 960 384c0 249.6-198.4 448-448 448S64 633.6 64 384s198.4-448 448-448c19.2 0 32-12.8 32-32S531.2-128 512-128zM992 96l-448 0C524.8 96 512 108.8 512 128s12.8 32 32 32l448 0c19.2 0 32-12.8 32-32S1011.2 96 992 96zM768-128c-19.2 0-32 12.8-32 32l0 448C736 371.2 748.8 384 768 384s32-12.8 32-32l0-448C800-115.2 787.2-128 768-128zM454.4 185.6c-6.4 0-19.2 0-25.6 6.4L262.4 358.4C256 364.8 256 377.6 256 384S256 403.2 262.4 409.6l224 224c12.8 12.8 32 12.8 44.8 0l166.4-166.4c12.8-12.8 12.8-32 0-44.8s-32-12.8-44.8 0L512 563.2 332.8 384l140.8-140.8c12.8-12.8 12.8-32 0-44.8C467.2 185.6 460.8 185.6 454.4 185.6z"  horiz-adv-x="1024" />

    
    <glyph glyph-name="xiangxia1" unicode="&#58981;" d="M793.2 576 832 534.6 512 192 192 534.6 230.6 576 512 275Z"  horiz-adv-x="1024" />

    
    <glyph glyph-name="xiangxia2" unicode="&#59201;" d="M716.8 631.04 513.92 432 311.68 631.04c-12.8 12.8-33.28 12.8-45.44 0-12.8-12.8-12.8-32.64 0-45.44l224-220.16c6.4-6.4 15.36-9.6 24.32-8.96C522.88 355.84 531.2 359.04 538.24 365.44l224 220.16c12.8 12.8 12.8 32.64 0 45.44C749.44 643.2 728.96 643.2 716.8 631.04zM832 832 192 832C121.6 832 64 774.4 64 704l0-640c0-70.4 57.6-128 128-128l640 0c70.4 0 128 57.6 128 128L960 704C960 774.4 902.4 832 832 832zM896 64c0-35.2-28.8-64-64-64L192 0c-35.2 0-64 28.8-64 64L128 704c0 35.2 28.8 64 64 64l640 0c35.2 0 64-28.8 64-64L896 64zM716.8 375.04l-202.24-199.04L311.68 375.04c-12.8 12.8-33.28 12.8-45.44 0-12.8-12.8-12.8-32.64 0-45.44l224-220.16c6.4-6.4 15.36-9.6 24.32-8.96 8.96-0.64 17.28 2.56 24.32 8.96l224 220.16c12.8 12.8 12.8 32.64 0 45.44C749.44 387.2 728.96 387.2 716.8 375.04z"  horiz-adv-x="1024" />

    
    <glyph glyph-name="quanbu" unicode="&#59026;" d="M980.151134-56.638119 41.269521-56.638119 41.269521 23.321579 0 23.321579 0-105.645676 14.616289-105.645676 14.616289-105.645676 1006.804366-105.645676 1006.804366-105.645676 1024-105.645676 1024 20.742233 980.151134 20.742233ZM962.9555 476.426532 555.418976 630.327456l0 31.811923c41.269521 9.457599 70.502099 46.428212 70.502099 90.277078 0.859782 50.72712-41.269521 94.575987-94.575987 94.575987s-95.435768-41.269521-95.435768-95.435768l49.007557 0c0 24.073887 22.354324 46.428212 46.428212 46.428212 24.073887 0 46.428212-22.354324 46.428212-46.428212 0-22.354324-14.616289-38.690176-36.970613-43.848866l-34.391268 0 0-77.380353L61.0445 476.426532C31.811923 466.968934 0 435.157011 0 393.88749l0-128.967254 1024 0L1024 388.728799C1024 432.577666 1001.645676 464.389589 962.9555 476.426532zM974.992443 359.496222l0-46.428212L47.287993 313.06801l0 55.88581c0 12.036944-2.579345 49.007557 34.391268 63.623846l452.245172 163.358522 409.256087-163.358522C979.291352 417.961377 974.992443 367.234257 974.992443 359.496222zM980.151134 130.794291 41.269521 130.794291 41.269521 210.753988 0 210.753988 0 81.786734 19.774979 81.786734 19.774979 81.786734 1011.103275 81.786734 1011.103275 81.786734 1024 81.786734 1024 210.753988 980.151134 210.753988Z"  horiz-adv-x="1024" />

    
    <glyph glyph-name="ai-hot" unicode="&#58904;" d="M288-128c-249.6 108.8-313.6 217.6-275.2 364.8 25.6 108.8 128 192 140.8 300.8 38.4-57.6 38.4-102.4 44.8-160 121.6 121.6 249.6 281.6 224 428.8 0 0 307.2-172.8 326.4-403.2 25.6 44.8 64 211.2 38.4 256 83.2-51.2 544-505.6-89.6-787.2 121.6 185.6 32 435.2-172.8 550.4 12.8-51.2-6.4-179.2-96-262.4 19.2 83.2-32 166.4-32 166.4s-19.2-102.4-83.2-179.2c-57.6-70.4-102.4-147.2-25.6-275.2z"  horiz-adv-x="1027" />

    
    <glyph glyph-name="goods" unicode="&#58886;" d="M759.616 488v-70.016h-70.016v70.016h-339.968v-70.016h-69.952v70.016h-179.712v-80h824.064v80zM161.024 408l88-355.968h531.968l81.984 355.968-701.952 0zM602.624 377.28h70.016v-70.016h-70.016v70.016zM614.848 269.696v-70.016l-69.952-0v70.016h69.952zM487.040 377.28h69.952v-70.016h-69.952v70.016zM499.2 269.696v-70.016l-70.016-0v70.016h70.016zM371.328 377.28h70.016v-70.016h-70.016v70.016zM255.68 378.56h70.016v-70.016h-70.016v70.016zM313.536 270.976h70.016v-70.016h-70.016v70.016zM431.296 90.304h-69.952v70.016h70.016v-70.016zM547.008 90.304h-70.016v70.016h70.016v-70.016zM662.656 90.304h-70.016v70.016h70.016v-70.016zM730.496 199.68h-70.016v70.016h70.016v-70.016zM718.4 308.544v70.016h70.016v-70.016h-70.016zM780.032 467.904l-254.016 287.104-246.336-287.104-68.672 7.104 292.864 337.984c12.096 14.016 36.096 14.016 48.32 0l282.816-324.992-54.976-20.096z"  horiz-adv-x="1024" />

    
    <glyph glyph-name="dizhi" unicode="&#58901;" d="M203.688623 348.45417l-25.845197 49.304125C185.149233 380.564076 193.817327 364.090771 203.688623 348.45417zM789.838632 348.299113c6.271757 9.92164 12.04713 20.184606 17.304975 30.754666L789.838632 348.299113zM496.811957 738.840584c-112.069017 0-202.920386-90.850362-202.920386-202.920386 0-112.069017 90.850362-202.920386 202.920386-202.920386s202.920386 90.851369 202.920386 202.920386C699.732343 647.990222 608.881982 738.840584 496.811957 738.840584zM496.811957 387.112721c-82.184282 0-148.807478 66.624203-148.807478 148.808484 0 82.185289 66.623196 148.808484 148.807478 148.808484 82.185289 0 148.807478-66.623196 148.807478-148.808484C645.620442 453.736923 578.997246 387.112721 496.811957 387.112721zM496.811957 879.546832c-191.323324 0-346.421689-155.098365-346.421689-346.422696 0-5.905258 0.15103-11.775277 0.442013-17.608041 2.083202-41.611683 11.512485-81.286159 27.010138-117.758807l25.845197-49.304125c0 0 213.711956-408.347864 231.158899-440.973284 23.45188-43.85699 82.29705-43.85699 107.035703 0.119817 18.424608 32.757319 247.955407 440.697403 247.955407 440.697403l17.304975 30.754666c21.159251 42.536991 33.825602 90.031781 35.793015 140.282359 0.180229 4.577205 0.297025 9.169512 0.297025 13.789005C843.23264 724.449474 688.137295 879.546832 496.811957 879.546832zM756.341268 396.959852l0.003021 0.002014-0.153043-0.280915c-1.007871-1.913042-2.039907-3.810981-3.087046-5.697844 0 0-237.870655-438.960562-246.178292-454.116889-8.308643-15.156326-30.609678-15.245937-38.264866 0-7.655188 15.245937-237.17894 472.355226-237.17894 472.355226l-1.133729 1.866726c-0.506453 1.10453-0.984713 2.224163-1.478077 3.335741l-0.216476 0.431945 0.062426-0.08357c-16.005113 36.198781-24.927943 76.227673-24.927943 118.353864 0 161.834286 131.193396 293.025668 293.025668 293.025668 161.834286 0 293.026675-131.191382 293.026675-293.025668C789.838632 483.969027 777.732097 437.643206 756.341268 396.959852zM506.797029 29.851132 506.797029 71.029863 506.797029 29.851132Z"  horiz-adv-x="1024" />

    
    <glyph glyph-name="sousuo1" unicode="&#58922;" d="M924.352 51.744l-163.968 163.968c44.992 62.912 71.808 139.648 71.808 222.72 0 211.776-172.224 384-384 384s-384-172.224-384-384 172.224-384 384-384c82.56 0 158.912 26.432 221.568 70.912l164.16-164.16c12.416-12.416 38.592-15.04 51.072-2.624l45.248 45.248c12.416 12.544 6.592 35.392-5.888 47.936zM128.128 438.432c0 176.448 143.552 320 320 320s320-143.552 320-320-143.552-320-320-320-320 143.552-320 320z"  horiz-adv-x="1024" />

    
    <glyph glyph-name="duihao" unicode="&#58933;" d="M416.832 97.92C400.64 97.92 384.512 104.128 372.16 116.48L119.424 370.24C94.784 395.008 94.784 435.2 119.424 459.968 144.128 484.736 184.128 484.736 208.768 459.968L416.832 251.072 814.4 650.24C839.04 675.072 879.04 675.072 903.744 650.24 928.384 625.472 928.384 585.344 903.744 560.576L461.504 116.48C449.152 104.128 432.96 97.92 416.832 97.92Z"  horiz-adv-x="1024" />

    
    <glyph glyph-name="jia" unicode="&#58915;" d="M544.83 338.464l374.19-0.973c17.694-0.046 32.039 14.21 32.085 31.904 0.045 17.74-14.21 32.04-31.904 32.086l-374.258 0.995 0.566 372.561c0.022 17.627-14.256 31.995-31.95 32.041-17.672 0.022-32.018-14.278-32.064-31.973l-0.564-372.47-373.986 0.996c-17.695 0.045-32.04-14.21-32.086-31.904-0.022-8.849 3.552-16.903 9.368-22.719 5.769-5.77 13.734-9.345 22.537-9.367l374.076-0.996-0.565-375.955c-0.023-8.846 3.553-16.856 9.368-22.671 5.793-5.793 13.78-9.346 22.583-9.369 17.672-0.022 31.995 14.256 32.04 31.95L544.83 338.464 544.83 338.464z"  horiz-adv-x="1024" />

    
    <glyph glyph-name="sousuo11" unicode="&#58952;" d="M823.41635 119.045373 672.262243 270.19948c37.762942 47.280432 58.333 105.511093 58.333 166.914251 0 71.637018-27.938437 138.975815-78.493704 189.63342-50.657605 50.657605-117.996402 78.493704-189.63342 78.493704s-138.975815-27.938437-189.63342-78.493704c-50.657605-50.657605-78.493704-117.996402-78.493704-189.63342s27.938437-138.975815 78.493704-189.63342c50.657605-50.657605 117.996402-78.493704 189.63342-78.493704 61.198481 0 119.122127 20.365381 166.30022 57.821307l151.256446-151.256446c6.037977-6.037977 13.815711-9.005797 21.695783-9.005797s15.760144 2.967819 21.695783 9.005797C835.389966 87.627424 835.389966 107.071757 823.41635 119.045373zM239.267639 437.21607c0 123.010993 100.087148 223.098141 223.098141 223.098141s223.098141-100.087148 223.098141-223.098141-100.087148-223.098141-223.098141-223.098141S239.267639 314.205077 239.267639 437.21607z"  horiz-adv-x="1024" />

    
    <glyph glyph-name="duihao1" unicode="&#58888;" d="M414.245926 144.971852l437.57037 453.12c7.300741 7.49037 7.111111 19.531852-0.474074 26.832593-7.49037 7.300741-19.531852 7.111111-26.832593-0.474074L398.506667 183.277037 199.111111 382.672593c-7.395556 7.395556-19.437037 7.395556-26.832593 0l0 0c-7.395556-7.395556-7.395556-19.437037 0-26.832593l212.574815-212.574815c6.731852-6.731852 17.161481-7.300741 24.557037-1.896296C411.211852 142.317037 412.823704 143.454815 414.245926 144.971852z"  horiz-adv-x="1024" />

    
    <glyph glyph-name="youhuixinxi" unicode="&#58959;" d="M130.091894 354.062154c0-10.522658 2.557242-20.750603 7.081279-29.995151l-0.983397-1.77032 9.735735-11.506055 267.201621-314.308499 2.261507 1.179872c10.916631-7.375991 23.89727-11.407817 37.371142-11.407817 2.163269 0 4.229325 0.098237 6.392594 0.294712 1.573845 0.196475 2.950192 0.39295 3.933589 0.590448l0.39295 0.098237c0.49221 0.098237 0.88516 0.098237 1.376347 0.196475l0.39295 0.098237c4.228301 0.786922 8.261151 1.966795 12.19474 3.540639l2.753717-3.442402 17.111726 15.538905 392.19745 360.727715-2.360767 2.557242c1.868557 3.244904 3.442402 6.785543 4.720511 10.326183l4.130064 0L895.995651 706.725192l-3.737114 0c-6.687306 19.472494-22.127973 34.912138-41.599444 41.599444l0 3.737114L521.502421 752.06175l0-3.638877c-9.53926-3.244904-18.193361-8.654101-25.569352-15.931854L150.252049 401.955954l-0.098237-0.098237c-9.146311-8.949836-15.439644-20.160155-18.291598-32.552393l-0.786922-2.261507 0-1.77032c-0.196475-0.983397-0.294712-1.868557-0.39295-2.753717-0.098237-0.49221-0.098237-1.081635-0.196475-1.672082-0.196475-1.966795-0.294712-3.737114-0.294712-5.113461C130.091894 355.242026 130.091894 354.652602 130.091894 354.062154L130.091894 354.062154zM179.067328 338.818985c-2.557242 2.950192-5.507434 7.867178-5.409197 14.554484l0 0 0 0.983397c0 0.688685 0 1.179872 0 1.475608 0 0.294712 0.098237 0.49221 0.098237 0.786922 0 0.39295 0.098237 1.475608 0.196475 1.77032l0.196475 1.081635c1.081635 4.229325 3.244904 8.064676 6.392594 11.211343L526.32117 701.513494l0.196475 0.196475c4.327562 4.425799 10.031471 6.883781 16.128329 6.983041 0.196475 0 0.39295 0 0.590448 0l21.635763 0 0 0.098237 242.615667 0 0-0.098237 21.635763 0c12.981662 0 23.50432-10.522658 23.50432-23.50432l0-21.635763 0.098237 0 0-253.040087-0.196475-11.70253c-0.098237-6.589069-2.950192-12.58769-8.064676-17.111726l-16.620539-14.653745 0.49221-0.49221L470.756667 37.392888l-2.557242-2.261507c-3.048429-2.65548-6.687306-4.524037-10.620895-5.310959-0.39295 0-0.688685 0-0.983397-0.098237l-0.688685-0.098237c-0.294712 0-0.49221-0.098237-0.786922-0.098237l-0.196475 0c-0.688685-0.098237-1.475608-0.098237-2.163269-0.098237-6.883781 0-13.374612 3.048429-17.898649 8.359388l-11.30958 13.276375 0 0L185.262424 331.442994 179.067328 338.818985 179.067328 338.818985zM455.80821 348.260008l-56.154951 56.154951c-7.965415 7.965415-7.965415 20.947078 0 28.913517l0.39295 0.39295c7.965415 7.966439 20.947078 7.966439 28.913517 0l56.154951-56.154951 39.730886 39.829124-56.154951 56.154951c-7.966439 7.965415-7.966439 20.947078 0 28.913517 7.965415 7.965415 20.947078 7.965415 28.913517 0l46.12348-46.12348 43.664475 168.169117c4.524037 17.505699 26.356274 23.406083 39.141462 10.620895l0 0c6.096858-6.097882 8.359388-14.948457 5.900384-23.209608l-32.748868-110.441345c-10.129708-33.338293-17.505699-54.875818-22.028713-64.710814l0.786922-0.786922c23.99653 9.342786 82.314751 27.634384 175.151136 54.875818 8.162914 2.359744 17.111726 0.098237 23.11137-5.900384l2.359744-2.360767c12.785188-12.785188 6.883781-34.519188-10.522658-39.141462L600.865957 399.202237l47.992037-47.992037c7.965415-7.965415 7.965415-20.947078 0-28.913517l0 0c-7.965415-7.965415-20.947078-7.965415-28.913517 0l-58.71117 58.71117-39.829124-39.829124 58.71117-58.71117c7.965415-7.965415 7.965415-20.947078 0-28.913517l-0.39295-0.39295c-7.966439-7.965415-20.947078-7.965415-28.913517 0l-58.71117 58.71117-78.183663-78.183663c-7.965415-7.965415-20.947078-7.965415-28.913517 0l-7.375991 7.375991c-7.965415 7.965415-7.965415 20.947078 0 28.913517L455.80821 348.260008 455.80821 348.260008z"  horiz-adv-x="1024" />

    
    <glyph glyph-name="zhanghuyue" unicode="&#58912;" d="M1012.763784 193.15317c0-77.655764 1.233118-150.957238-0.429801-224.192195-1.115435-49.048439-44.653215-90.872133-93.496987-90.959117-265.146055-0.491201-530.297227-0.527017-795.443282-0.0307-56.728566 0.10745-102.814451 48.260471-102.829801 104.610403-0.0614 190.120262-0.071633 380.24564 0.005117 570.365902C20.589497 616.660291 63.958427 660.228771 127.957787 660.264588c258.325528 0.148384 516.656173 0.117684 774.981702 0.01535 57.608634-0.020467 102.179983-35.340868 106.682656-92.130835 4.349173-54.86098 0.941468-110.335962 0.941468-168.875831-10.294748 0-19.341028 0-28.392425 0-76.729646-0.010233-153.469525 0.762384-230.188937-0.235367-83.734373-1.089852-131.836226-78.443732-96.715375-154.257493 17.555309-37.899206 49.416839-51.668176 89.265497-51.617009 79.287983 0.10745 158.575966 0 237.863948-0.01535C991.606336 193.15317 1000.816349 193.15317 1012.763784 193.15317zM998.918063 409.619188c0 47.467386-2.18482 92.524819 0.527017 137.285484 3.837506 63.334193-46.730585 104.057802-103.049818 103.817319-254.017289-1.100085-508.039694-0.347934-762.0621-0.573068C69.550952 650.087523 30.689812 611.016599 30.659112 546.899555c-0.0921-185.827372-0.071633-371.654744-0.010233-557.482117 0.020467-56.923 41.148294-101.110598 98.316894-101.264098 260.837815-0.711218 521.680748-0.578184 782.518563-0.081867 48.465138 0.0921 87.218828 32.562514 89.685065 80.792285 3.550972 69.474202 0.905651 139.265637 0.905651 210.418108-8.263429 0.455384-14.874172 1.135902-21.484915 1.141018-78.423265 0.086983-156.856763-0.818668-235.264678 0.353051-69.136501 1.033568-112.914765 46.832919-112.848249 115.130285 0.0614 63.682127 50.496457 113.068266 116.327587 113.641333 29.83021 0.26095 59.670654 0.0614 89.505981 0.0614C890.935772 409.619188 943.565882 409.619188 998.918063 409.619188zM853.640334 716.834538c-176.694109 0-349.228362 0-527.063489 0 7.368011 5.336691 10.688732 8.396462 14.546705 10.448249 91.562884 48.731205 182.895518 97.897327 274.893319 145.789397 58.534752 30.474911 121.792195 23.168301 159.548134-19.821996 15.93844-18.148843 25.915955-41.634378 38.016889-63.027192C826.823845 766.814211 839.38528 743.021676 853.640334 716.834538zM835.143557 727.200919c-19.463829 35.647869-36.50747 68.686234-55.439165 100.609164-7.142877 12.044651-16.997592 23.940918-28.458942 31.718263-42.212562 28.648259-86.405277 26.514606-130.357508 3.371888-77.451097-40.78501-154.75381-81.856553-232.04629-122.943447-5.387858-2.865338-10.187298-6.825643-18.895878-12.750752C526.608105 727.200919 678.281677 727.200919 835.143557 727.200919zM802.862459 294.064218c-0.726568-30.336761-25.900605-53.740429-56.667166-52.686394-31.124729 1.064268-53.842762 25.608954-52.420327 56.641583 1.437785 31.380563 24.595853 51.657942 57.664918 50.491341C781.674312 347.436246 803.589027 324.237246 802.862459 294.064218zM705.46145 296.607205c-0.450267-25.373587 17.105042-43.49173 42.350712-43.706631 24.84657-0.2149 44.208065 18.701444 43.977814 42.964713-0.220017 22.9227-18.665627 41.496227-41.997662 42.289312C724.316394 339.019317 705.906601 321.760775 705.46145 296.607205z"  horiz-adv-x="1024" />

    
    <glyph glyph-name="shangdian" unicode="&#58883;" d="M922.961304 53.027983l-34.848693 0L888.112612 341.105051l-57.215096 0L830.897515 53.027983 456.00622 53.027983 456.00622 355.401662l-36.772508 0L419.233712 53.027983 203.677331 53.027983 203.677331 341.105051l-50.043766 0L153.633564 53.027983l-52.612265 0c-19.74981 0-35.731806-16.519232-35.731806-36.259832 0-19.710924 15.981996-36.266995 35.731806-36.266995l821.940005 0c19.748786 0 35.748179 16.557094 35.748179 36.266995C958.709483 36.509774 942.710091 53.027983 922.961304 53.027983L922.961304 53.027983zM922.961304 53.027983M496.529145 211.15028l12.640901-12.625552 133.862777 133.8638-14.248516 11.024078L496.529145 211.15028zM496.529145 211.15028M785.97642 243.043664l-14.232143 11.033287L639.488091 121.804393l12.641925-12.633738L785.97642 243.043664zM785.97642 243.043664M741.860666 323.980022l-12.657274 12.633738L514.418584 121.804393l12.625552-12.633738L741.860666 323.980022zM741.860666 323.980022M319.96687 137.281899c0-17.7165 14.280238-32.027437 31.963992-32.027437 17.684778 0 32.05916 14.310937 32.05916 32.027437 0 11.348466-7.659447 21.270443-14.815427 26.952862l0 106.863866c7.15598 5.682419 14.815427 15.604396 14.815427 26.976398 0 17.692964-14.374382 32.019251-32.05916 32.019251-17.668405 0-31.963992-14.326287-31.963992-32.019251 0-10.718109 6.304589-20.136619 13.46057-25.967418l0-108.881826C326.27146 157.401122 319.96687 147.984658 319.96687 137.281899L319.96687 137.281899zM319.96687 137.281899M152.325779 379.878123c34.989909 0 63.566758 25.581632 65.97869 68.476581l12.514012 0c2.427282-42.894949 30.987758-68.476581 66.00939-68.476581 34.990932 0 63.551408 25.581632 65.962318 68.476581l12.531408 0c2.410909-42.894949 30.986735-68.476581 65.977667-68.476581 34.991955 0 63.567781 25.581632 66.011436 68.476581l12.497639 0c2.411933-42.894949 31.003108-68.476581 65.995063-68.476581 34.989909 0 63.566758 25.581632 65.977667 68.476581l12.499685 0c2.442632-42.894949 31.003108-68.476581 66.00939-68.476581 34.991955 0 63.566758 25.581632 66.011436 68.476581l12.481266 0c2.411933-42.894949 31.005155-68.476581 65.979714-68.476581 35.006282 0 63.59848 25.581632 66.00939 68.476581l-2.600221 0 0 15.321964L81.114924 463.676667l0-15.321964 5.233188 0C88.743672 405.459754 117.334847 379.878123 152.325779 379.878123L152.325779 379.878123zM152.325779 379.878123M153.633564 787.498844 866.662067 787.498844l0-35.747155L153.633564 751.751688 153.633564 787.498844 153.633564 787.498844zM153.633564 787.498844M858.181929 730.300121 165.786349 730.300121 83.14721 485.127212l857.688183 0L858.181929 730.300121 858.181929 730.300121zM228.86499 499.430986l-35.716456 0 53.604872 215.541031 35.731806 0L228.86499 499.430986 228.86499 499.430986zM371.822912 499.430986l-35.731806 0 33.210379 215.541031 35.715433 0L371.822912 499.430986 371.822912 499.430986zM527.501554 499.430986 491.753375 499.430986 491.753375 714.970994l35.748179 0L527.501554 499.430986 527.501554 499.430986zM654.949224 499.430986 621.723495 714.970994l35.763528 0 33.17968-215.541031L654.949224 499.429962 654.949224 499.430986zM797.876448 499.430986l-53.589522 215.541031L780.018731 714.972017l53.589522-215.541031L797.876448 499.430986 797.876448 499.430986zM797.876448 499.430986"  horiz-adv-x="1024" />

    
    <glyph glyph-name="webicon214" unicode="&#59020;" d="M687.008 768.32 314.336 395.648c-0.064-0.064-0.064-0.16-0.128-0.192-0.064-0.064-0.128-0.064-0.192-0.128-2.752-2.752-4.032-6.304-4.32-9.952C309.632 384.896 309.44 384.448 309.44 384c0-0.48 0.192-0.896 0.256-1.376 0.288-3.648 1.568-7.2 4.32-9.952 0.064-0.064 0.128-0.064 0.192-0.128 0.064-0.064 0.064-0.16 0.128-0.192l372.672-372.672c6.432-6.432 16.704-6.592 22.976-0.32 6.24 6.24 6.112 16.512-0.32 22.976L347.936 384 709.632 745.696c6.432 6.432 6.592 16.704 0.32 22.976C703.744 774.912 693.44 774.752 687.008 768.32z"  horiz-adv-x="1024" />

    
    <glyph glyph-name="lajitong" unicode="&#58935;" d="M630.784 64.512c12.288 0 20.48 8.192 20.48 16.384l28.672 450.56c0 12.288-8.192 20.48-16.384 20.48-12.288 0-20.48-8.192-20.48-16.384l-28.672-450.56C614.4 72.704 622.592 64.512 630.784 64.512zM409.6 64.512c12.288 0 20.48 8.192 16.384 20.48l-28.672 450.56c0 12.288-8.192 20.48-20.48 16.384C368.64 551.936 360.448 543.744 360.448 535.552l28.672-450.56C389.12 72.704 397.312 64.512 409.6 64.512zM520.192 64.512c12.288 0 20.48 8.192 20.48 20.48l0 450.56c0 12.288-8.192 20.48-20.48 20.48-12.288 0-20.48-8.192-20.48-20.48l0-450.56C499.712 72.704 507.904 64.512 520.192 64.512zM839.68 666.624l-188.416 0L651.264 744.448c0 20.48-16.384 36.864-36.864 36.864l-188.416 0c-20.48 0-36.864-16.384-36.864-36.864l0-73.728L200.704 670.72C188.416 666.624 180.224 658.432 180.224 650.24c0-12.288 8.192-20.48 20.48-20.48l36.864 0 36.864-602.112c4.096-40.96 32.768-73.728 73.728-73.728l339.968 0c40.96 0 69.632 32.768 73.728 73.728l36.864 602.112 36.864 0C851.968 629.76 860.16 637.952 860.16 650.24 860.16 658.432 851.968 666.624 839.68 666.624zM425.984 744.448 614.4 744.448l0-73.728-188.416 0L425.984 744.448zM729.088 27.648c-4.096-20.48-16.384-36.864-36.864-36.864L352.256-9.216c-20.48 0-32.768 16.384-36.864 36.864L274.432 629.76l491.52 0L729.088 27.648z"  horiz-adv-x="1024" />

    
    <glyph glyph-name="warning" unicode="&#58892;" d="M959.256 384c0 247.013-200.243 447.256-447.256 447.256s-447.256-200.243-447.256-447.256c0-247.013 200.243-447.256 447.256-447.256 247.013 0 447.256 200.243 447.256 447.256v0 0 0 0 0zM117.362 384c0 217.953 176.685 394.638 394.638 394.638s394.638-176.685 394.638-394.638c0-217.953-176.685-394.638-394.638-394.638-217.953 0-394.638 176.685-394.638 394.638v0 0 0 0 0zM484.458 296.44c0-23.021 10.551-34.531 31.653-34.531 21.102 0 31.653 11.51 31.653 34.531v319.41c0 23.021-10.551 34.531-31.653 34.531-21.102 0-31.653-11.51-31.653-34.531v-319.41zM478.702 155.439c1.918-23.021 14.388-34.531 37.408-34.531 23.021 0 35.49 11.51 37.408 34.531-1.918 23.021-14.388 35.49-37.408 37.408-23.021-1.918-35.49-14.388-37.408-37.408v0z"  horiz-adv-x="1024" />

    
    <glyph glyph-name="xinxi2" unicode="&#58949;" d="M367.219283 499.282775c0 17.457966-14.447972 31.905938-31.905938 31.905938l-46.955908 0c-17.457966 0-31.905938-14.447972-31.905938-31.905938 0-17.457966 14.447972-31.905938 31.905938-31.905938l46.955908 0C352.771311 467.376837 367.219283 481.824809 367.219283 499.282775zM736.244562 467.376837c17.457966 0 31.905938 14.447972 31.905938 31.905938 0 17.457966-14.447972 31.905938-31.905938 31.905938L455.71311 531.188713c-17.457966 0-31.905938-14.447972-31.905938-31.905938 0-17.457966 14.447972-31.905938 31.905938-31.905938L736.244562 467.376837zM511.699001 882.756026c-282.939447 0-511.699001-200.465608-511.699001-447.285126 0-141.469724 75.249853-267.287478 192.037625-349.159318l0-167.957672c0-25.885949 28.293945-41.537919 49.965902-28.293945L385.279248-23.252205c13.243974 7.825985 18.661964 24.079953 13.243974 39.129924 0 0 0 0.601999 0 0.601999-6.621987 18.661964-28.895944 25.885949-45.751911 15.651969l-69.831864-42.139918c-12.641975-7.223986-28.293945 1.805996-28.293945 16.253968l1.805996 114.981775c-115.583774 69.229865-191.435626 184.21164-191.435626 314.243386 0 211.903586 200.465608 383.473251 447.887125 383.473251 247.421517 0 447.887125-171.569665 447.887125-383.473251 0-211.903586-200.465608-383.473251-447.887125-383.473251-6.621987 0-13.243974 0-19.865961 0.601999-22.875955 1.203998-37.323927-22.875955-27.691946-43.343915 0-0.601999 0.601999-1.203998 0.601999-1.805996 4.815991-10.23398 14.447972-18.059965 25.885949-18.661964 6.621987-0.601999 13.845973-0.601999 21.069959-0.601999 282.939447 0 512.300999 200.465608 512.300999 447.285126C1024 682.290417 794.638448 882.756026 511.699001 882.756026zM352.169312 275.339212l320.263374 0c17.457966 0 31.905938 14.447972 31.905938 31.905938 0 17.457966-14.447972 31.905938-31.905938 31.905938L352.169312 339.151088c-17.457966 0-31.905938-14.447972-31.905938-31.905938C320.263374 289.787184 334.109347 275.339212 352.169312 275.339212z"  horiz-adv-x="1026" />

    
    <glyph glyph-name="daishouhuo" unicode="&#58914;" d="M774.9376-60.53888c-68.9408 0-124.96384 56.02816-124.96384 124.96896 0 4.85888 0.2304 9.71776 0.80896 14.46912L434.70848 78.8992c-2.83648-1.44896-5.9648-2.2016-9.3184-2.2016L357.02784 76.6976c-0.2304 0-0.4608 0-0.63488 0-7.12192-62.2848-60.0832-110.78656-124.21632-110.78656-64.13824 0-117.15584 48.50176-124.27776 110.78656L39.54176 76.6976c-11.45856 0-20.72064 9.26208-20.72064 20.72576L18.82112 419.59424c0 3.82464 1.04448 7.58272 3.01056 10.82368l110.848 181.05856c26.1632 41.4464 64.82944 62.2848 115.01056 62.2848l157.44 0c3.5328 76.11392 66.50368 136.95488 143.49312 136.95488l307.23584 0c79.1808 0 143.61088-64.42496 143.61088-143.60576l0-475.26912c0-58.06592-43.99104-106.04544-100.4288-112.30208 0.57856-4.92032 0.8704-10.0096 0.8704-15.104C899.91168-4.51072 843.8784-60.53888 774.9376-60.53888L774.9376-60.53888zM774.9376 147.94752c-46.01344 0-83.52256-37.504-83.52256-83.52256 0-46.00832 37.504-83.52256 83.52256-83.52256 46.01856 0 83.52256 37.50912 83.52256 83.52256C858.46528 110.44352 820.96128 147.94752 774.9376 147.94752L774.9376 147.94752zM232.17664 174.464c-46.07488 0-83.584-37.50912-83.584-83.584 0-46.01344 37.50912-83.52256 83.584-83.52256 46.01344 0 83.52256 37.50912 83.52256 83.52256C315.6992 136.95488 278.19008 174.464 232.17664 174.464L232.17664 174.464zM232.17664 215.90528c59.6224 0 109.62944-41.9584 122.01472-97.94048 0.92672 0.11776 1.85344 0.17408 2.83648 0.17408l47.6416 0 0.29184 514.17088L247.68512 632.30976c-36.00384 0-61.35296-13.59872-79.75936-42.71616L60.2624 413.7472l0-295.6032 49.83808 0C122.60352 174.06464 172.61056 215.90528 232.17664 215.90528L232.17664 215.90528zM446.45888 120.34048l216.71424 0c20.55168 40.92416 62.91968 69.05856 111.7696 69.05856 48.85504 0 91.22304-28.1344 111.77472-69.05856 39.30112 0.06144 71.31136 32.128 71.31136 71.49056L958.0288 667.10528c0 56.32-45.8496 102.15936-102.16448 102.15936l-307.24096 0c-56.32 0-102.16448-45.83936-102.16448-102.15936L446.45888 120.34048 446.45888 120.34048 446.45888 120.34048zM277.66784 394.18368 145.408 394.18368c-11.45856 0-20.72064 9.26208-20.72064 20.72576 0 11.45856 9.26208 20.72064 20.72064 20.72064l111.5392 0L256.9472 547.16928c0 11.46368 9.26208 20.72064 20.72064 20.72064s20.72064-9.25696 20.72064-20.72064l0-132.25984C298.3936 403.44576 289.13152 394.18368 277.66784 394.18368L277.66784 394.18368z"  horiz-adv-x="1024" />

    
    <glyph glyph-name="xiangxia3" unicode="&#59407;" d="M473.65467 820.21292l0.780783-738.190579L292.768927 270.333194c-4.832052 4.819772-12.654204 4.811586-17.476023-0.01842l-37.82549-37.905308c-4.819772-4.832052-4.811586-12.654204 0.01842-17.476023l228.695632-237.055021c0.231267-0.273223 0.468674-0.544399 0.727571-0.801249l1.266853-1.264806 35.269271-36.558637c2.587941-2.580778 6.031367-3.76372 9.41544-3.576455 3.390213-0.186242 6.840802 1.003863 9.42772 3.595898l35.266202 36.71111 1.189082 1.191128c0.242524 0.243547 0.464581 0.499373 0.683569 0.757247l228.234121 237.583047c4.821819 4.832052 4.813632 12.654204-0.01842 17.476023l-37.905308 37.823444c-4.830005 4.821819-12.653181 4.813632-17.475-0.01842L552.695864 83.874525l-0.778736 736.421282c-0.007163 6.825452-5.545296 12.350283-12.369725 12.343119l-53.54859-0.056282C479.175407 832.575482 473.647507 827.038372 473.65467 820.21292L473.65467 820.21292z"  horiz-adv-x="1024" />

    
    <glyph glyph-name="duihao2" unicode="&#59038;" d="M0 384C0 666.765241 229.234759 896 512 896s512-229.234759 512-512-229.234759-512-512-512S0 101.234759 0 384z m419.310345-194.630621a35.310345 35.310345 0 0 1 49.399172-1.271172l335.518897 311.931586a35.310345 35.310345 0 0 1-48.075035 51.729655l-309.124413-289.544827-145.125518 149.645241a35.310345 35.310345 0 1 1-50.688-49.169655l168.112552-173.320828z"  horiz-adv-x="1024" />

    
    <glyph glyph-name="13" unicode="&#58909;" d="M1023.954 34.018c0-89.475-72.539-162.017-162.007-162.017h-699.919c-89.468 0-162.007 72.544-162.007 162.017v699.964c0 89.475 72.539 162.018 162.007 162.018h699.92c89.468 0 162.007-72.545 162.007-162.018v-699.964zM851.824 444.26l-114.424 124.708c-10.54 13.84-24.085 24.853-39.705 32.178 7.193-0.304-17.841 10.209-45.311 10.209h-394.399c-58.354 0-106.097-47.042-106.097-104.539v-243.925c0-57.496 47.742-104.539 106.097-104.539h394.4c18.801 0 36.467 4.937 51.822 13.481 20.080 11.322 35.796 28.357 45.189 48.889l94.879 75.884c43.287 38.559 46.684 105.003 7.55 147.653zM643.275 273.896c-3.169-4.216-7.391-6.092-12.139-6.092-2.115 0-3.695 0-5.284 0.472-1.58 0-3.16 0.936-4.749 1.872-11.613 7.023-22.699 14.050-33.259 21.541-11.086 7.027-22.172 14.050-33.259 21.545-10.551 6.555-21.11 13.578-32.197 20.137-11.613 6.555-24.815 14.046-39.596 22.944 0-13.11 0.527-23.884 0.527-32.779v-35.123c0-4.216-0.527-8.898-0.527-14.050v-15.921c0-1.876-0.527-3.28-0.527-3.28-1.053-2.343-3.695-3.747-7.917-4.216-4.222-0.936-7.391-0.936-9.497-0.936-5.284 0-9.506 1.872-13.728 5.619-4.222 3.747-6.337 7.49-6.337 12.174 0 6.559 0 13.582 1.053 20.609 0.535 6.555 1.062 13.578 1.589 20.605l1.053 28.564c0 9.367 0 20.137 0.527 32.315l-16.362-0.936h-16.897v-110.52c0-1.876-0.527-3.28-0.527-3.28-1.58-2.343-4.222-3.747-7.917-4.216-4.222-0.936-7.917-0.936-10.024-0.936-5.284 0-10.033 1.872-14.255 5.619-4.222 3.747-6.337 7.49-6.337 12.174 0 6.559 0.527 13.582 1.58 20.609 1.062 6.555 1.589 13.578 1.589 20.605l1.053 27.16c0 9.367 0.527 19.67 0.527 31.375-15.835-0.936-30.617-0.936-43.81-0.936h-39.596c-5.275 0-9.497 1.876-12.666 6.088-3.695 3.747-5.284 7.963-5.284 13.582 0 7.027 2.642 12.178 7.917 15.454 5.284 3.28 12.148 5.151 20.066 5.151 4.222 0 8.971-0.468 13.72-0.468 4.23-0.936 8.453-0.936 13.728-0.936h21.12c7.391-0.468 15.835-0.468 25.332-0.468v33.252c0 10.77-0.527 21.541-1.053 32.779-0.527 11.239-0.527 22.013-0.527 33.252 0 4.684 1.58 8.427 5.811 11.239 4.222 2.812 8.444 4.216 13.72 4.216 5.284 0 9.506-1.404 13.728-4.216 4.222-2.812 6.337-6.555 6.337-11.239 0-7.027-0.535-13.582-1.062-20.137l-1.58-20.137c-0.527-9.367-0.527-18.266-0.527-27.632l-1.062-31.844h16.37l16.888 1.404c0 7.023 0 13.114 0.527 18.266v14.050c0 10.77-0.527 21.541-1.053 32.779-1.053 11.239-1.053 22.013-1.053 33.252 0 4.684 2.107 8.427 6.337 11.239 3.695 2.812 8.444 4.216 13.72 4.216 4.749 0 9.506-1.404 13.728-4.216 4.222-2.812 6.337-6.555 6.337-11.239 0-7.027-0.535-13.582-1.062-20.137l-1.053-20.137c-1.053-8.431-1.053-16.394-1.053-24.821l-1.062-29.503c3.169 0.936 5.811 1.872 7.391 2.808 1.062 0.468 1.589 0.94 2.642 1.408 6.337 2.808 13.201 6.555 20.593 12.174 7.391 4.684 14.246 10.302 21.637 16.858 6.864 5.623 13.728 11.71 20.593 17.798l19.003 15.921c6.337 5.151 12.139 11.243 17.95 17.798 5.802 6.555 10.024 11.239 12.139 14.518 2.107 2.339 3.695 4.216 4.749 5.151 3.695 2.339 7.391 3.747 11.613 3.747 2.642 0 5.284-0.94 8.453-2.343 3.16-1.872 5.802-3.747 8.444-6.088 2.107-2.343 3.695-4.684 5.275-7.495 1.053-2.808 2.115-5.619 2.115-8.427 0-7.027-4.757-14.050-13.728-21.545-4.222-3.743-8.444-6.555-12.666-9.367-4.222-2.808-7.917-5.151-11.086-7.023l-80.773-60.411c-3.169-2.812-6.329-4.684-9.497-6.555-3.169-1.876-6.864-3.747-10.033-5.623l31.144-18.729c8.452-5.151 16.897-10.302 25.342-15.454 12.666-7.963 25.342-15.454 38.008-22.949 12.675-7.49 25.342-15.454 36.954-23.884 5.275-4.216 8.444-9.367 8.444-15.454-0.004-4.679-1.584-8.895-4.752-12.639zM776.31 335.488c-27.669 0-50.1 22.102-50.1 49.365 0 27.264 22.431 49.366 50.1 49.366 27.673 0 50.1-22.102 50.1-49.366 0-27.263-22.427-49.365-50.1-49.365z"  horiz-adv-x="1024" />

    
    <glyph glyph-name="shangpinguanli" unicode="&#58973;" d="M792.29952-109.5424 241.28512-109.5424c-64.6912 0-91.62752 46.41792-96.86016 70.96832-2.86208 16.09216-66.70336 373.90848-79.9232 472.0896-4.81792 35.87584 1.89952 64.51712 19.91168 85.13024 17.13152 19.55328 44.14976 30.336 76.09344 30.336 7.38304 0 13.25056-0.57856 16.44544-0.98816l679.68512 0c3.18976 0.41472 9.0624 0.98816 16.44032 0.98816 31.9488 0 58.96704-10.78272 76.06784-30.34624 18.04288-20.60288 24.73472-49.24416 19.9168-85.12-13.19424-98.17088-77.03552-456.00256-79.73376-471.18848C883.93216-63.11936 856.99584-109.5424 792.29952-109.5424L792.29952-109.5424M160.50688 492.58496c-8.94976 0-25.20064-1.44896-33.62304-11.06944-8.53504-9.7536-8.23808-27.39712-6.47168-40.48896 13.0304-96.97792 78.70976-465.0752 79.37536-468.77696 1.31584-4.87936 9.0624-25.37984 41.50272-25.37984l551.0144 0c35.70176 0 41.45664 25.21088 41.67168 26.28096 0.50176 2.80064 66.18112 370.89792 79.1808 467.87584 1.77152 13.09184 2.06848 30.73536-6.44096 40.48896-8.43264 9.6256-24.6784 11.06944-33.62816 11.06944-5.37088 0-9.16992-0.50688-9.91232-0.62464-1.4592-0.2304-3.09248-0.36864-4.55168-0.36864L174.96576 491.59168c-1.56672 0-3.13856 0.13824-4.70528 0.39936C169.70752 492.06784 165.87776 492.58496 160.50688 492.58496L160.50688 492.58496M160.50688 492.58496 160.50688 492.58496zM239.80032 342.5024c0-15.43168 6.35392-30.76096 17.26464-41.67168 10.9056-10.91072 26.24512-17.25952 41.67168-17.25952s30.76096 6.3488 41.67168 17.25952 17.25952 26.24 17.25952 41.67168-6.3488 30.76096-17.25952 41.67168-26.24512 17.25952-41.67168 17.25952-30.76608-6.3488-41.6768-17.25952C246.15936 373.25824 239.80032 357.92896 239.80032 342.5024L239.80032 342.5024M239.80032 342.5024 239.80032 342.5024zM675.92192 342.5024c0-15.43168 6.3488-30.76096 17.25952-41.67168s26.24-17.25952 41.67168-17.25952 30.76608 6.3488 41.67168 17.25952c10.91072 10.91072 17.25952 26.24 17.25952 41.67168s-6.3488 30.76096-17.25952 41.67168c-10.9056 10.91072-26.24 17.25952-41.67168 17.25952s-30.76096-6.3488-41.67168-17.25952S675.92192 357.92896 675.92192 342.5024L675.92192 342.5024M675.92192 342.5024 675.92192 342.5024zM768.26112 587.36128c-15.5904 0-28.20096 12.63104-28.20096 28.20608 0 113.34656-100.16768 205.568-223.27296 205.568-123.1104 0-223.25248-92.22144-223.25248-205.568 0-15.57504-12.61568-28.20608-28.20096-28.20608-15.5904 0-28.20608 12.63104-28.20608 28.20608 0 144.45568 125.45024 261.96992 279.65952 261.96992 154.20416 0 279.67488-117.51424 279.67488-261.96992C796.46208 599.99232 783.85152 587.36128 768.26112 587.36128L768.26112 587.36128M768.26112 587.36128 768.26112 587.36128z"  horiz-adv-x="1024" />

    
    <glyph glyph-name="xiangxia4" unicode="&#58982;" d="M957.44-22.1952a38.92736 38.92736 0 0 0-38.92224-38.92736H105.48736A38.92224 38.92224 0 0 0 66.56-22.1952a38.92736 38.92736 0 0 0 38.92736 38.93248h813.03552a38.92736 38.92736 0 0 0 38.91712-38.93248zM511.91296 87.57248a38.9376 38.9376 0 0 0-38.93248 38.93248V790.19008a38.93248 38.93248 0 0 0 77.85984 0v-663.69024a38.93248 38.93248 0 0 0-38.92736-38.92736zM539.42784 99.22048a38.93248 38.93248 0 0 0-55.04 0L192.26624 391.35744a38.92224 38.92224 0 0 0 0 55.04512 38.912 38.912 0 0 0 55.04 0l292.12672-292.13184a38.912 38.912 0 0 0-0.00512-55.05024zM484.38784 99.22048a38.93248 38.93248 0 0 0 0 55.05536l292.13696 292.12672a38.90176 38.90176 0 0 0 55.04512 0 38.912 38.912 0 0 0 0-55.04512l-292.14208-292.13696a38.93248 38.93248 0 0 0-55.04 0z"  horiz-adv-x="1024" />

    
    <glyph glyph-name="daifukuan1" unicode="&#58900;" d="M900.423111 19.498667a37.404444 37.404444 0 0 0-37.361778-37.361778H91.264a37.404444 37.404444 0 0 0-37.361778 37.361778V748.501333a37.404444 37.404444 0 0 0 37.361778 37.361778h771.783111a37.404444 37.404444 0 0 0 37.361778-37.361778v-164.849777h53.902222V748.501333a91.363556 91.363556 0 0 1-91.264 91.264H91.264A91.363556 91.363556 0 0 1 0 748.501333v-729.002666a91.363556 91.363556 0 0 1 91.264-91.264h771.783111a91.363556 91.363556 0 0 1 91.264 91.264V189.710222h-53.888v-170.211555zM868.423111 539.576889h-321.564444c-85.788444 0-155.576889-69.788444-155.576889-155.576889s69.788444-155.576889 155.576889-155.576889h321.564444C954.211556 228.423111 1024 298.211556 1024 384s-69.788444 155.576889-155.576889 155.576889z m0-257.265778h-321.564444c-56.064 0-101.688889 45.624889-101.688889 101.688889s45.624889 101.688889 101.688889 101.688889h321.564444c56.064 0 101.688889-45.624889 101.688889-101.688889s-45.624889-101.688889-101.688889-101.688889zM604.586667 384m-48.355556 0a48.355556 48.355556 0 1 1 96.711111 0 48.355556 48.355556 0 1 1-96.711111 0Z"  horiz-adv-x="1024" />

    
    <glyph glyph-name="cuohao" unicode="&#58930;" d="M882.048 686.784L209.28 13.952c-18.624-18.56-48.768-18.56-67.328 0s-18.56 48.704 0 67.328L814.72 754.048c18.624 18.56 48.768 18.56 67.328 0 18.56-18.56 18.56-48.704 0-67.264zM882.048 13.952c-18.56-18.56-48.704-18.56-67.328 0L141.952 686.784c-18.56 18.624-18.56 48.704 0 67.264 18.56 18.56 48.704 18.56 67.328 0L882.048 81.28c18.56-18.624 18.56-48.768 0-67.328z"  horiz-adv-x="1024" />

    
    <glyph glyph-name="shouye" unicode="&#58941;" d="M1007.072 353.52L512.016 816.848 16.96 354.88c-9.68-9.04-10.224-24.24-1.168-33.92 9.04-9.68 24.24-10.224 33.92-1.168l462.272 431.36L974.272 318.48a23.942 23.942 0 0 1 16.4-6.48c6.4 0 12.8 2.544 17.52 7.6 9.056 9.68 8.56 24.864-1.12 33.92zM856 344c-13.248 0-24-10.752-24-24v-368H640V208H384v-256H192V320c0 13.248-10.736 24-24 24s-24-10.752-24-24v-416h288V160h160v-256h288V320c0 13.248-10.752 24-24 24zM688 688h144v-128c0-13.264 10.752-24 24-24s24 10.736 24 24V736H688c-13.248 0-24-10.736-24-24s10.752-24 24-24z"  horiz-adv-x="1024" />

    
    <glyph glyph-name="wode" unicode="&#58931;" d="M957.1328 47.0016a501.9648 501.9648 0 0 1-14.9504 28.0576 519.936 519.936 0 0 1-105.728 126.8736 516.096 516.096 0 0 1-182.1184 103.0144 315.136 315.136 0 0 1 70.8096 53.248 312.5248 312.5248 0 0 1 92.6208 222.72c0 84.1728-32.9216 163.328-92.6208 222.8224A314.5728 314.5728 0 0 1 502.272 896h-3.8912a314.5728 314.5728 0 0 1-218.9312-92.2624 312.5248 312.5248 0 0 1-92.6208-222.8224c0-84.1216 32.9216-163.2768 92.6208-222.72a317.3376 317.3376 0 0 1 70.8096-53.248 516.096 516.096 0 0 1-204.0832-123.392 519.3216 519.3216 0 0 1-83.7632-106.496A499.1488 499.1488 0 0 1 0.3072-107.52c-0.7168-5.3248 0-19.0976 0-19.0976h59.7504s-0.512 6.2976 0 9.8304a464.7936 464.7936 0 0 0 130.7136 259.1744c81.3056 81.92 191.9488 133.3248 311.5008 133.5296 120.0128-0.4096 230.4-51.8144 311.552-133.5296a464.8448 464.8448 0 0 0 130.7136-259.1744c1.9456-13.312 1.3312-10.0352 0-9.8304 1.3312-0.2048 59.7504 1.4848 59.7504 0 0-1.536 2.304 1.8432 0 19.0976a498.9952 498.9952 0 0 1-47.1552 154.5216zM499.712 328.9088c-117.9648 0.8704-223.1808 82.5344-251.904 192.1536a232.96 232.96 0 0 0-7.8336 59.904 239.2576 239.2576 0 0 0 7.7824 60.4672c28.928 112.3328 135.1168 201.6256 253.8496 201.6256 120.1152 0 226.304-89.2928 255.1808-201.6256l0.9216-3.6864a233.0624 233.0624 0 0 0-0.9216-116.736c-28.7232-109.568-133.9392-191.232-251.904-192.1024H499.712z"  horiz-adv-x="1024" />

    
    <glyph glyph-name="shouye4" unicode="&#58980;" d="M488.576 834.688a32.704 32.704 0 0 0 45.504 0 32.064 32.064 0 0 0 0-45.568L80.64 336.32a32.704 32.704 0 0 0-45.568 0 32.064 32.064 0 0 0 0 45.504L488.576 834.688zM489.216 835.328a32.064 32.064 0 0 0 45.504 0l453.504-453.504a32.192 32.192 0 1 0-45.568-45.504L489.216 789.76a32.704 32.704 0 0 0 0 45.568zM704 730.112a31.424 31.424 0 0 0 32.064 32.064h128.256c17.728 0 32.064-14.336 32.064-32a31.424 31.424 0 0 0-32-32.128h-128.32a32.064 32.064 0 0 0-32.064 32.064zM832.32 730.752c0 17.728 14.4 32.064 32.064 32.064a31.424 31.424 0 0 0 32.064-32v-128.32a32.064 32.064 0 0 0-32-32.064 31.424 31.424 0 0 0-32.128 32V730.816zM126.784 345.28a32.064 32.064 0 1 0 64.192 0v-384.832a32.064 32.064 0 1 0-64.192 0V345.28zM126.784-39.552a31.424 31.424 0 0 0 32.064 32.064h256.64c17.664 0 32-14.336 32-32a31.424 31.424 0 0 0-32-32.128h-256.64a32.064 32.064 0 0 0-32 32.064z m449.024 0a31.424 31.424 0 0 0 32 32.064h256.64c17.664 0 32-14.336 32-32a31.424 31.424 0 0 0-32-32.128h-256.64a32.064 32.064 0 0 0-32 32.064zM383.36 153.536a32.064 32.064 0 0 0 32.064 31.36 31.424 31.424 0 0 0 32.064-31.36v-192.448a32.064 32.064 0 0 0-32-31.36 31.424 31.424 0 0 0-32.128 31.36V153.6zM383.36 152.896a31.424 31.424 0 0 0 31.424 32h192.448a32.064 32.064 0 0 0 31.36-32 31.424 31.424 0 0 0-31.36-32.064H414.72a32.064 32.064 0 0 0-31.424 32zM575.808 153.536a32.064 32.064 0 0 0 32 31.36 31.424 31.424 0 0 0 32.128-31.36v-192.448a32.064 32.064 0 0 0-32.064-31.36 31.424 31.424 0 0 0-32.064 31.36V153.6z m288.64 223.808a32.704 32.704 0 0 1-32.128-32v-384.896a32.064 32.064 0 1 1 64.128 0V345.28a32.704 32.704 0 0 1-32 32.064z"  horiz-adv-x="1024" />

    
    <glyph glyph-name="yly_zhanghuyue" unicode="&#58908;" d="M772.8 532.5h-522c-20.6 0-37.3-16.7-37.3-37.3 0-20.6 16.7-37.3 37.3-37.3h522c20.6 0 37.3 16.7 37.3 37.3 0 20.6-16.7 37.3-37.3 37.3z m36.9 186.7H213.1C130.8 719.2 64 652.5 64 570.1v-372.8c0-82.4 66.8-149.1 149.1-149.1h596.6c82.4 0 149.1 66.8 149.1 149.1V570.1c0 82.4-66.7 149.1-149.1 149.1z m74.9-522.3c0-41.2-33.4-74.6-74.6-74.6H213.5c-41.2 0-74.6 33.4-74.6 74.6V569.7c0 41.2 33.4 74.6 74.6 74.6h596.6c41.2 0 74.6-33.4 74.6-74.6v-372.8z m-410.1 74.6H250.8c-20.6 0-37.3-16.7-37.3-37.3s16.7-37.3 37.3-37.3h223.7c20.6 0 37.3 16.7 37.3 37.3s-16.7 37.3-37.3 37.3z"  horiz-adv-x="1024" />

    
    <glyph glyph-name="xiangzuo" unicode="&#58934;" d="M727.1-65.2c-4.9 0-9.7 1.9-13.4 5.6L283.5 370.6c-7.4 7.4-7.4 19.4 0 26.9L713.7 827.6c7.4 7.4 19.4 7.4 26.9 0 7.4-7.4 7.4-19.4 0-26.9L323.8 384l416.7-416.7c7.4-7.4 7.4-19.4 0-26.9-3.7-3.7-8.6-5.6-13.4-5.6z"  horiz-adv-x="1024" />

    
    <glyph glyph-name="ziyuan" unicode="&#58939;" d="M512.227-128c-192.737 0-400.439 40.361-400.439 128.794 0 62.129 99.316 94.328 181.399 110.2 1.316 0.242 2.83 0.38 4.376 0.38 14.026 0 25.396-11.37 25.396-25.396 0-12.203-8.607-22.396-20.082-24.839-106.285-19.984-141.658-49.461-141.658-59.891 0-23.128 118.817-78.002 349.194-78.002s349.194 54.42 349.194 78.002c0 10.884-37.187 40.815-146.934 61.222-11.916 2.247-20.809 12.574-20.809 24.978 0 1.59 0.146 3.146 0.426 4.656 2.441 11.757 12.847 20.584 25.315 20.584 1.461 0 2.894-0.121 4.289-0.354 86.014-15.852 188.504-47.597 188.504-111.086 1.814-88.886-205.435-129.247-398.172-129.247zM512.227-45.463c-0.074-0.001-0.163-0.001-0.251-0.001-10.744 0-20.241 5.337-25.985 13.505l-224.549 330.701c-62.385 63.391-100.903 150.43-100.903 246.467 0 194.107 157.355 351.461 351.461 351.461 194.107 0 351.461-157.355 351.461-351.461 0-96.036-38.518-183.076-100.949-246.513l-224.436-330.554c-5.788-8.235-15.231-13.562-25.921-13.605zM512.227 832.964c-0.267 0.001-0.582 0.001-0.898 0.001-159.042 0-287.972-128.929-287.972-287.972 0-79.745 32.414-151.919 84.785-204.066l3.638-4.545 199.993-294.321 199.993 294.321 3.628 4.535c52.38 52.157 84.794 124.33 84.794 204.074 0 159.039-128.923 287.966-287.96 287.972zM512.227 409.396c-91.168 0-165.074 73.906-165.074 165.074 0 91.168 73.906 165.074 165.074 165.074 91.168 0 165.074-73.906 165.074-165.074 0-91.168-73.906-165.074-165.074-165.074-0 0-0 0-0 0zM512.227 676.507c-0 0-0 0-0 0-56.354 0-102.037-45.684-102.037-102.037 0-56.354 45.684-102.037 102.037-102.037 56.354 0 102.037 45.684 102.037 102.037 0 56.354-45.684 102.037-102.037 102.037z"  horiz-adv-x="1024" />

    
    <glyph glyph-name="shouye1" unicode="&#59163;" d="M980.7-128h-931.4c-23.9 0-43.3 19.4-43.3 43.3v935.4c0 23.9 19.4 43.3 43.3 43.3h931.5c23.9 0 43.3-19.4 43.3-43.3v-935.5c-0.1-23.8-19.5-43.2-43.4-43.2zM815 601.7v202.8h-139.2v-82.5l-160.8 139-479.5-414.5 89.1-77 390.4 337.5 390.4-337.5 89.1 77zM862.4 225v114l-6.6 5.7-341 294.9-347.6-300.6v-114l0.4-320.5h695.3l-0.5 320.5zM501.6-52.3c0-11.4-9.3-20.7-20.7-20.7h-173c-11.4 0-20.7 9.3-20.7 20.7v274.2c0 11.4 9.3 20.7 20.7 20.7h173c11.4 0 20.7-9.3 20.7-20.7v-274.2zM761.5 132.8c0-7.1-5.7-12.8-12.8-12.8h-127.6c-7.1 0-12.8 5.7-12.8 12.8v188.5c0 7.1 5.7 12.8 12.8 12.8h127.6c7.1 0 12.8-5.7 12.8-12.8v-188.5z"  horiz-adv-x="1024" />

    
    <glyph glyph-name="shouye2" unicode="&#58911;" d="M849.92-43.52c2.56-23.04-15.36-43.52-40.96-43.52H640V256h-256v-340.48h-171.52c-23.04 0-43.52 17.92-43.52 43.52v384h-76.8L512 829.44l212.48-248.32V768h84.48v-286.72l120.32-140.8h-76.8v-43.52h171.52l-171.52 199.68V811.52h-171.52v-112.64L512 896l-512-596.48h128v-340.48c0-48.64 38.4-87.04 84.48-87.04h212.48V212.48h171.52V-128h212.48c46.08 0 84.48 38.4 84.48 84.48v84.48h-43.52v-84.48zM852.48 212.48h43.52V128h-43.52zM384 427.52v-84.48h256v84.48c0 71.68-56.32 128-128 128s-128-58.88-128-128z m212.48 0V384h-171.52v43.52c0 46.08 38.4 84.48 84.48 84.48 48.64 0 87.04-38.4 87.04-84.48z"  horiz-adv-x="1024" />

    
    <glyph glyph-name="xinpin" unicode="&#58898;" d="M818.56512 777.47712a17.2032 17.2032 0 0 0 17.19296-17.19296v-752.56832a17.21344 17.21344 0 0 0-11.57632-16.24576l-297.63072 139.07456-14.55104 6.80448-14.55616-6.80448-297.63072-139.07456a17.21856 17.21856 0 0 0-11.5712 16.24576V760.28416a17.20832 17.20832 0 0 0 17.18784 17.19296h613.13536m0 34.3808H205.42976c-28.48256 0-51.57376-23.0912-51.57376-51.57376v-752.56832c0-28.48256 23.0912-51.56864 51.57376-51.56864L512 99.39968l306.56512-143.25248c28.48256 0 51.57376 23.0912 51.57376 51.56864V760.28416c0 28.48256-23.0912 51.57376-51.57376 51.57376zM644.58752 258.63168c-2.73408 0-5.4784 0.65536-7.99744 1.9712L512 326.10304l-124.58496-65.50528a17.2032 17.2032 0 0 0-24.94464 18.1248l23.79264 138.73152-100.79232 98.2528a17.18784 17.18784 0 0 0 9.5232 29.32736l139.29472 20.23936 62.29504 126.22336a17.19296 17.19296 0 0 0 30.83776 0l62.28992-126.22336 139.29472-20.23936a17.18784 17.18784 0 0 0 9.5232-29.32736l-100.79744-98.24768 23.79264-138.73152a17.2032 17.2032 0 0 0-16.93696-20.096zM512 362.71616c2.74944 0 5.49888-0.65536 8.00256-1.97632l101.75488-53.49376-19.4304 113.3056a17.1776 17.1776 0 0 0 4.9408 15.21664l82.31936 80.24576-113.76128 16.53248a17.18784 17.18784 0 0 0-12.94336 9.40544L512 645.03808 461.12256 541.952a17.19808 17.19808 0 0 0-12.94336-9.40544l-113.7664-16.53248 82.31936-80.24576a17.1776 17.1776 0 0 0 4.9408-15.21664l-19.4304-113.3056 101.76 53.49376a17.1008 17.1008 0 0 0 7.99744 1.97632zM529.60768 196.80768a17.19296 17.19296 0 0 0-17.19296-17.18784h-123.0848a17.18784 17.18784 0 0 0 0 34.37568h123.0848a17.18272 17.18272 0 0 0 17.19296-17.18784zM651.8528 196.80768a17.19296 17.19296 0 0 0-17.19296-17.18784h-45.83936a17.18784 17.18784 0 0 0 0 34.37568h45.83936a17.1776 17.1776 0 0 0 17.19296-17.18784z"  horiz-adv-x="1024" />

    
    <glyph glyph-name="tijiao" unicode="&#58903;" d="M905.92 658.24a32 32 0 0 1-52.48-36.48A416 416 0 1 0 96 384a418.56 418.56 0 0 0 297.28 398.72 32 32 0 1 1-18.24 61.44A480 480 0 1 1 992 384a477.12 477.12 0 0 1-86.08 274.24zM630.72 782.72A413.76 413.76 0 0 0 768 710.72a32 32 0 0 1 39.68 50.24 476.8 476.8 0 0 1-160 83.2 32 32 0 0 1-18.24-61.44zM489.28 809.28a36.8 36.8 0 0 1 10.56-6.72 30.08 30.08 0 0 1 24.32 0 37.12 37.12 0 0 1 10.56 6.72A32 32 0 0 1 544 832a33.6 33.6 0 0 1-9.28 22.72A32 32 0 0 1 505.6 864a20.8 20.8 0 0 1-5.76-1.92 23.68 23.68 0 0 1-5.76-2.88l-4.8-3.84a32 32 0 0 1-6.72-10.56A32 32 0 0 1 480 832a32 32 0 0 1 2.56-12.16 37.12 37.12 0 0 1 6.72-10.56zM230.08 428.16a36.48 36.48 0 0 1 0-51.84L413.12 192a36.48 36.48 0 0 1 51.84 0l328.96 330.56A36.48 36.48 0 0 1 742.08 576l-303.36-303.36-156.8 155.52a36.8 36.8 0 0 1-51.84 0z"  horiz-adv-x="1024" />

    
    <glyph glyph-name="gengduo1" unicode="&#58891;" d="M512-128C229.7-128 0 101.7 0 384S229.7 896 512 896s512-229.7 512-512-229.7-512-512-512z m0 938.7C276.7 810.7 85.3 619.3 85.3 384S276.7-42.7 512-42.7 938.7 148.7 938.7 384 747.3 810.7 512 810.7zM469.3 192c-10.9 0-21.8 4.2-30.2 12.5-16.7 16.7-16.7 43.7 0 60.3L558.3 384 439.2 503.2c-16.7 16.7-16.7 43.7 0 60.3 16.7 16.7 43.7 16.7 60.3 0l149.3-149.3c16.7-16.7 16.7-43.7 0-60.3L499.5 204.5c-8.3-8.3-19.3-12.5-30.2-12.5z"  horiz-adv-x="1024" />

    
    <glyph glyph-name="remen" unicode="&#58950;" d="M863.1 300.7C743.6 519.2 820.7 589.2 821.5 590c1.3 1.1 1.5 2.9 0.5 4.3-1.1 1.3-3.2 1.9-5 1.2-1.7-0.6-168-59.1-147.1-188.7-45.7 34.6-258.7 212.2-128.3 421 0.8 1.3 0.6 2.9-0.6 3.9-1.1 1.1-3 1.5-4.5 0.9-2.9-1-69.3-25-122.3-85.6-48.9-55.8-94.4-154.5-33.1-307.3 22.3-71.9-19.7-130.2-42.3-154.9 5.6 17.1 12.5 46 11.3 79.1-1.8 48.5-22.5 115.6-111.1 159-1.4 0.7-3.1 0.6-4.4-0.2-1.4-0.9-2-2.2-1.5-3.6 0.3-1.3 33.4-128.9-24.7-188-50.2-51-99.4-139.7-72.8-221.8 22.3-68.7 92-121.1 207.2-155.8 29.5-7.7 57.8-13.5 89-18.4 2-0.4 4 0.7 4.7 2.3 0.6 1.8-0.4 3.6-2.3 4.3-59.3 21.6-120.2 66.7-74.9 158.3 43.2 78.9 35.5 119.6 26.8 137.1 22.3-10.6 66.6-38.2 55.6-86.6-0.3-1.4 0.5-2.9 1.9-3.6 1.5-0.8 3.3-0.7 4.7 0.3 1.4 0.9 134.7 93.5 74.1 206.9 29.8-14.6 109-65.4 62.3-182-15.6-50.2 26.8-86.2 28.6-87.8 1.4-1.1 3.5-1.4 5.2-0.4 1.6 0.8 2.2 2.6 1.5 4.1-1.4 3.1-32.9 74.9 35.5 114.6-3.6-18.4-9.4-64 15.1-88.9 22-22.4 43.3-59.1 36.8-94.9-4.5-25.2-22.2-46.4-52.6-63.1-1.7-1-2.4-2.8-1.5-4.4 0.8-1.6 3-2.3 5-1.8 75.2 21 173.8 62.7 216.8 142.2 31.7 58.7 27.7 129-12 209m0 0"  horiz-adv-x="1024" />

    
    <glyph glyph-name="qr-code" unicode="&#58902;" d="M53.989 873.762h393.236c39.983-3.903 30.344-73.419 30.344-118.577v-215.01c0-46.735 8.913-104.013-22.429-117.285-20.415-8.641-75.199-2.604-101.61-2.604H145.046c-48.2 0-114.006-11.354-121.404 29.974V843.793c5.39 14.658 14.87 25.278 30.347 29.969m54.109-88.61v-280.164H391.8V789.06H109.42c-1.546-0.211-1.44-2.058-1.322-3.91m473.717 88.61h393.236c16.04-5.876 27.058-16.713 30.346-35.182v-383.107c-3.6-15.925-12.017-29.514-27.71-33.879-25.647-7.13-68.274-1.307-98.969-1.307H676.827c-30.447 0-75.57-6.33-100.287 1.307-34.895 10.78-25.069 78.04-25.069 125.095v200.68c0 54.319-12.078 118.803 30.344 126.394m54.104-88.61v-280.164h283.713V789.06H637.238c-1.535-0.211-1.432-2.058-1.319-3.91m-398.507-82.095c39.51 7.365 70.582-18.998 71.257-54.726 0.884-47.126-47.848-73.008-85.77-53.43-43.393 22.396-40.539 97.902 14.513 108.156m527.825 0c93.073 17.172 91.288-128.38 0-113.365-58.09 9.55-59.967 102.308 0 113.365m-320.65-811.833H55.312c-16.163 4.9-27.078 14.969-31.669 31.277V314.73400000000004c3.842 11.482 12.715 24.868 26.388 28.67 25.833 7.176 68.025 1.303 98.974 1.303H350.89c29.838 0 73.265 6.575 100.287-1.304 36.565-10.656 26.392-76.828 26.392-123.795v-207.19c0-50.69 11.055-116.667-32.982-121.195m-336.49 364.876v-280.171H391.8V260.009H109.42c-1.546-0.226-1.44-2.065-1.322-3.91m897.298 53.42v-109.457c-3.075-36.922-0.44-79.487-1.314-118.582H723.01v63.847c-26.395 3.05-58.5 0.442-87.086 1.314-3.082-82.535-0.44-170.708-1.324-255.412h-51.466c-44.246 8.763-31.668 74.327-31.668 126.402V219.60799999999995c0 30.37-6.226 75.908 1.32 100.343 9.005 29.158 48.036 24.76 87.094 24.76h191.335v-173.312h88.415c0.874 57.338-1.758 118.147 1.312 173.311 42.549 2.486 81.956 1.872 84.454-35.19M244.011 175.308c42.192 4.61 77.063-35.435 60.704-79.497-22.69-61.066-131.156-38.11-110.846 39.096 5.61 21.343 21.835 37.301 50.142 40.401m574.01-284.085H723.01c0.879 33.456-1.758 70.377 1.324 101.65h93.688v-101.65h-0.001m187.375 101.649v-66.463c-3.67-18.526-14.635-29.84-31.668-35.182h-67.295c0.877 33.45-1.758 70.368 1.321 101.643h97.642v0.002m0 0"  horiz-adv-x="1024" />

    
    <glyph glyph-name="fahuotixing" unicode="&#58932;" d="M271.258278-12.715232000000015c0-61.033113 54.251656-115.284768 115.284768-115.284768s115.284768 54.251656 115.284769 115.284768-54.251656 115.284768-115.284769 115.284768-115.284768-47.470199-115.284768-115.284768zM874.807947-12.715232000000015c0-61.033113 54.251656-115.284768 115.284768-115.284768 61.033113 0 115.284768 54.251656 115.284768 115.284768 0 61.033113-54.251656 115.284768-115.284768 115.284768s-115.284768-47.470199-115.284768-115.284768zM1057.907285 523.019868H745.960265v-535.7351h61.033112c0 94.940397 81.377483 176.317881 176.317881 176.317881s176.317881-81.377483 176.317881-176.317881h61.033113V306.013245l-162.754967 217.006623z m-183.099338-257.695365V441.642384h128.847682l128.847682-176.317881h-257.695364zM291.602649 624.741722V787.4966890000001h-40.688742v-176.317881L372.980132 489.112583l27.125828 27.125828L291.602649 624.741722zM549.298013 624.741722c0 149.192053-122.066225 271.258278-271.258278 271.258278C122.066225 896 0 773.933775 0 624.741722c0-81.377483 33.907285-149.192053 88.15894-203.443709v-434.013245h122.066226c0 94.940397 81.377483 176.317881 176.31788 176.317881s176.317881-81.377483 176.317881-176.317881h122.066225V624.741722h-135.629139zM271.258278 400.953642C149.192053 400.953642 54.251656 502.675497 54.251656 624.741722S149.192053 848.529801 271.258278 848.529801 495.046358 746.807947 495.046358 624.741722c0-122.066225-94.940397-223.788079-223.78808-223.78808z"  horiz-adv-x="1220" />

    
    <glyph glyph-name="yifahuo" unicode="&#58943;" d="M347.733333 710.4l-29.866666 29.866667-98.133334-98.133334-66.133333 66.133334-29.866667-29.866667 96-96 29.866667 29.866667zM1024 488.533333V490.666667h-2.133333l-96 106.666666H746.666667v21.333334c0 59.733333-46.933333 106.666667-106.666667 106.666666h-179.2C433.066667 823.466667 343.466667 896 234.666667 896 104.533333 896 0 791.466667 0 661.333333c0-83.2 42.666667-155.733333 106.666667-196.266666V128c0-59.733333 46.933333-106.666667 106.666666-106.666667h21.333334c0-83.2 66.133333-149.333333 149.333333-149.333333s149.333333 66.133333 149.333333 149.333333h213.333334c0-83.2 66.133333-149.333333 149.333333-149.333333s149.333333 66.133333 149.333333 149.333333h64V392.533333l-85.333333 96z m42.666667-168.533333h-192c-36.266667 0-64 27.733333-64 64s27.733333 64 64 64h128l64-72.533333V320zM42.666667 661.333333c0 106.666667 85.333333 192 192 192s192-85.333333 192-192-85.333333-192-192-192-192 85.333333-192 192z m341.333333-746.666666c-59.733333 0-106.666667 46.933333-106.666667 106.666666s46.933333 106.666667 106.666667 106.666667 106.666667-46.933333 106.666667-106.666667-46.933333-106.666667-106.666667-106.666666z m142.933333 149.333333c-17.066667 61.866667-74.666667 106.666667-142.933333 106.666667s-125.866667-44.8-142.933333-106.666667H213.333333c-36.266667 0-64 27.733333-64 64V443.733333c25.6-10.666667 55.466667-17.066667 85.333334-17.066666 130.133333 0 234.666667 104.533333 234.666666 234.666666 0 6.4 0 14.933333-2.133333 21.333334H640c36.266667 0 64-27.733333 64-64v-554.666667h-177.066667zM896-85.33333300000004c-59.733333 0-106.666667 46.933333-106.666667 106.666666s46.933333 106.666667 106.666667 106.666667 106.666667-46.933333 106.666667-106.666667-46.933333-106.666667-106.666667-106.666666z m142.933333 149.333333c-17.066667 61.866667-74.666667 106.666667-142.933333 106.666667s-125.866667-44.8-142.933333-106.666667H746.666667V554.666667h162.133333l55.466667-64H874.666667c-59.733333 0-106.666667-46.933333-106.666667-106.666667s46.933333-106.666667 106.666667-106.666667h192v-213.333333h-27.733334z"  horiz-adv-x="1109" />

    
    <glyph glyph-name="fenlei" unicode="&#58882;" d="M953.7 487.3c45.4 45.2 70.3 105.3 70.3 169.3s-25 124.1-70.3 169.3C908.3 871.1 848.1 896 784 896S659.7 871.1 614.3 825.9C569 780.7 544 720.6 544 656.6v-240.8l240.1 1.4c64.1 0.1 124.3 25 169.6 70.1zM608 480.2V656.6C608 753.3 687 832 784 832s176-78.7 176-175.4-79-175.4-176-175.4l-176-1zM240 896C186.5 896 135.8 878.8 93.5 846.3c-41-31.5-71.1-76.1-84.8-125.6-4.7-17 5.2-34.7 22.3-39.4 17-4.7 34.7 5.2 39.4 22.3C91.4 779.2 161.1 832 240 832c97 0 176-78.7 176-175.4v-176.4l-175.8 1h-0.2c-77.1 0-144.6 49.2-167.8 122.4-5.4 16.8-23.3 26.2-40.2 20.8-16.8-5.4-26.2-23.3-20.8-40.2 15.3-48.1 44.9-89.5 85.7-119.8 41.6-30.8 91-47.2 143-47.2l240.1-1.4V656.6c0 64-25 124.1-70.3 169.3C364.3 871.1 304.1 896 240 896zM784.1 350.8L544 352.2v-240.8c0-64 25-124.1 70.3-169.3 45.3-45.2 105.6-70.1 169.7-70.1s124.3 24.9 169.7 70.1c45.4 45.2 70.3 105.3 70.3 169.3s-25 124.1-70.3 169.3c-45.3 45.1-105.5 70-169.6 70.1zM784-64c-97 0-176 78.7-176 175.4V287.8l175.8-1h0.2c97 0 176-78.7 176-175.4S881-64 784-64zM448 143.4c-17.7 0-32-14.3-32-32 0-13.9-1.6-27.8-4.9-41.1-4.1-17.2 6.4-34.5 23.6-38.6 2.5-0.6 5-0.9 7.5-0.9 14.4 0 27.5 9.8 31.1 24.5 4.4 18.3 6.6 37.2 6.6 56.1 0.1 17.7-14.2 32-31.9 32zM70.3 280.7C25 235.5 0 175.3 0 111.4s25-124.1 70.3-169.3c45.3-45.2 105.6-70.1 169.7-70.1 68.6 0 134.1 29.4 179.6 80.6 11.7 13.2 10.5 33.4-2.7 45.2-13.2 11.7-33.4 10.5-45.2-2.7C338.4-42.4 290.4-64 240-64c-97 0-176 78.7-176 175.4s79 175.4 176 175.4l176 1v-56.7c0-17.7 14.3-32 32-32s32 14.3 32 32V352.2l-240.1-1.4c-64.1-0.1-124.3-25-169.6-70.1z"  horiz-adv-x="1024" />

    
    <glyph glyph-name="xiangxia5" unicode="&#59453;" d="M510.4 286.4a31.968 31.968 0 0 0-22.72 9.28l-160 160a32 32 0 0 0 45.12 45.12l137.28-137.28 137.28 137.28a32 32 0 1 0 45.088-45.088l-160-160a32.256 32.256 0 0 0-22.048-9.312z"  horiz-adv-x="1024" />

    
    <glyph glyph-name="xiangyou" unicode="&#58983;" d="M304 800c7 0 13.9-2.4 19.6-7.4l417-387.2c12.2-11.7 12.2-31.2 0-42.9l-417-387.2c-12.2-10.8-31.1-9.7-41.9 2.8-10.9 12.4-9.6 31.1 2.8 41.9l388.1 364-388.1 363.9c-12.4 10.8-13.6 29.5-2.8 41.9C287.5 796.6 295.8 800 304 800z"  horiz-adv-x="1024" />

    
    <glyph glyph-name="xiangzuo1" unicode="&#58984;" d="M720-32c-7 0-13.9 2.4-19.6 7.4l-417 387.2c-12.2 11.7-12.2 31.2 0 42.9l417 387.2c12.2 10.8 31.1 9.7 41.9-2.8 10.9-12.4 9.6-31.1-2.8-41.9L351.4 384l388.2-363.9c12.4-10.8 13.6-29.5 2.8-41.9-5.9-6.8-14.2-10.2-22.4-10.2z"  horiz-adv-x="1024" />

    
    <glyph glyph-name="dengdaishouhuo" unicode="&#58887;" d="M854.112 748.463H491.87c-55.484 0-100.626-45.47-100.626-101.374l-0.02-100.226H250.383c-28.687 0-63.278-17.443-80.511-40.558l-72.425-97.309c-16.071-21.557-28.183-58.158-28.183-85.126v-141.916c0-33.531 27.073-60.831 60.379-60.831h31.101c13.468 0.14 24.56 14.56 24.56 28.807 0 15.341-12.821 26.329-25.513 26.329l-25.129-0.086c-8.175-0.02-10.706 4.528-10.811 13.105v108.56c2.188-1.318 4.459-2.221 6.837-2.221l159.409 0.157c33.231-0.157 47.884 18.641 47.764 48.231l0.123 80.807c0 31.984-11.994 48.526-47.884 48.526l-76.086-0.086c1.547 1.946 2.481 3.142 2.481 3.142 6.735 8.716 18.31 15.326 34.084 15.326h140.524c0.033 0 0.069 0.02 0.103 0.02l-0.103-296.134c0-9.963 9.441-18.553 22.512-20.341-10.777-1.962-23.619-8.677-24.125-25.582-0.575-19.7 16.384-28.548 27.491-28.548H600.98c9.058 0 28.672 6.56 28.482 27.301-0.207 20.879-18.171 27.559-27.197 27.559h-174.77c11.437 2.741 18.726 10.585 18.726 19.593l-0.103 451.915c0.157 22.512 16.66 45.836 45.732 45.836h363.284c25.634 0 44.948-24.086 44.948-50.298v-432.113c0-14.752-22.301-34.799-34.001-35.441-11.092-0.608-31.829-3.366-31.744-27.559 0.086-23.116 22.491-26.779 33.601-26.779 43.578 0 86.796 33.201 86.796 100.278V647.104c0 55.903-45.142 101.374-100.626 101.374M283.202 418.225v-67.495H130.125c-1.282 0-2.567-0.26-3.803-0.642 1.39 6.3 3.383 12.496 6.959 17.634 7.099 10.241 22.369 30.355 37.904 50.503 0.277-0.02 0.522-0.123 0.816-0.123l111.196 0.123z m3.995-188.795c-57.378 0-104.043-47.034-104.043-104.825s46.67-104.813 104.043-104.813c57.378 0 104.062 47.015 104.062 104.813S344.575 229.43 287.197 229.43m0-154.497c-26.203 0.103-49.012 22.945-49.34 50.174-0.311 26.816 21.07 49.635 49.585 49.413 31.031-0.277 49.34-22.77 49.305-49.916-0.033-26.902-21.382-49.74-49.55-49.669m444.261 154.238c-57.378 0-104.043-47.015-104.043-104.813s46.67-104.825 104.043-104.825c57.395 0 104.062 47.034 104.062 104.825s-46.684 104.813-104.062 104.813m0-154.463c-26.203 0.069-48.994 22.93-49.326 50.174-0.33 26.816 21.07 49.62 49.568 49.394 31.031-0.277 49.34-22.77 49.305-49.898-0.033-26.938-21.366-49.74-49.55-49.669M592.511 425.219c0-15.238 9.164-27.282 25.844-27.282h95.09c20.1 0 27.301 8.313 27.301 27.508l-0.157 153.077c0.157 16.835-11.365 29.157-27.355 29.157-17.372 0-27.666-12.181-27.403-29.157l0.241-125.461-67.861-0.103c-18.467 0.103-25.707-13.52-25.707-27.732z"  horiz-adv-x="1024" />

    
    <glyph glyph-name="xiangyou1" unicode="&#59255;" d="M265.6 790.4c-12.8 12.8-12.8 32 0 44.8 12.8 12.8 32 12.8 44.8 0l428.8-428.8c6.4-6.4 9.6-16 9.6-22.4s-3.2-16-9.6-22.4L310.4-67.2c-12.8-12.8-32-12.8-44.8 0-12.8 12.8-12.8 32 0 44.8L672 384 265.6 790.4z"  horiz-adv-x="1024" />

    
    <glyph glyph-name="shezhi" unicode="&#59274;" d="M396.8 16l41.6 48 6.4 6.4c38.4 35.2 99.2 32 134.4-6.4l41.6-48c22.4 6.4 44.8 16 64 25.6l-3.2 64v9.6c3.2 54.4 48 92.8 102.4 89.6l64-3.2c9.6 19.2 19.2 41.6 25.6 64l-48 41.6-6.4 6.4c-35.2 38.4-32 99.2 6.4 134.4l48 41.6c-6.4 22.4-16 44.8-25.6 64l-64-3.2h-9.6c-54.4 3.2-92.8 48-89.6 102.4l3.2 64c-19.2 9.6-41.6 19.2-64 25.6l-41.6-48-6.4-6.4c-38.4-35.2-99.2-32-134.4 6.4l-41.6 48c-16-6.4-38.4-16-64-28.8l3.2-64v-9.6c-3.2-54.4-48-92.8-102.4-89.6l-64 3.2c-9.6-19.2-19.2-41.6-25.6-64l48-41.6 6.4-6.4c35.2-38.4 32-99.2-6.4-134.4l-48-41.6c6.4-22.4 16-44.8 25.6-64l64 3.2h9.6c54.4-3.2 92.8-48 89.6-102.4l-3.2-64c22.4-6.4 41.6-12.8 64-22.4z m-128 12.8l3.2 83.2c0 19.2-12.8 32-28.8 35.2h-3.2l-83.2-3.2c-12.8 0-22.4 6.4-28.8 16-22.4 35.2-38.4 73.6-48 115.2-3.2 12.8 0 22.4 9.6 32l64 57.6c12.8 12.8 12.8 32 3.2 44.8l-3.2 3.2-64 57.6c-9.6 6.4-12.8 19.2-9.6 32 9.6 41.6 25.6 80 48 115.2 6.4 9.6 16 16 28.8 16l83.2-3.2c19.2 0 32 12.8 35.2 28.8v3.2l-3.2 83.2c0 12.8 6.4 25.6 19.2 28.8 48 25.6 86.4 38.4 115.2 48 12.8 3.2 22.4 0 32-9.6l57.6-64c12.8-12.8 32-12.8 44.8-3.2l3.2 3.2 57.6 64c6.4 9.6 19.2 12.8 32 9.6 41.6-9.6 80-25.6 115.2-48 9.6-6.4 16-16 16-28.8l-3.2-83.2c0-19.2 12.8-32 28.8-35.2h3.2l83.2 3.2c12.8 0 22.4-6.4 28.8-16 22.4-35.2 38.4-73.6 48-115.2 3.2-12.8 0-22.4-9.6-32l-64-57.6c-12.8-12.8-12.8-32-3.2-44.8l3.2-3.2 64-57.6c9.6-6.4 12.8-19.2 9.6-32-9.6-41.6-25.6-80-48-115.2-6.4-9.6-16-16-28.8-16l-83.2 3.2c-19.2 0-32-12.8-35.2-28.8v-3.2l3.2-83.2c0-12.8-6.4-22.4-16-28.8-35.2-22.4-73.6-38.4-115.2-48-12.8-3.2-22.4 0-32 9.6l-57.6 64c-12.8 12.8-32 12.8-44.8 3.2l-3.2-3.2-57.6-64c-6.4-9.6-19.2-12.8-32-9.6-41.6 9.6-80 25.6-115.2 48-12.8 3.2-19.2 16-19.2 28.8z m243.2 163.2c-105.6 0-192 86.4-192 192s86.4 192 192 192 192-86.4 192-192-86.4-192-192-192z m0 64c70.4 0 128 57.6 128 128s-57.6 128-128 128-128-57.6-128-128 57.6-128 128-128z"  horiz-adv-x="1024" />

    
    <glyph glyph-name="shangpinzhinan" unicode="&#58905;" d="M862.90625-36.1875H162.96875c-38.71875 0-70.125 31.40625-70.125 70.125V463.5c0 38.71875 31.40625 70.125 70.125 70.125h699.9375c38.71875 0 70.125-31.40625 70.125-70.125v-429.5625c0-38.71875-31.40625-70.125-70.125-70.125zM784.0625 668.4375H239.9375c-32.4375 0-58.78125-26.34375-58.78125-58.78125v-45.9375h661.6875v45.9375c0 32.53125-26.34375 58.78125-58.78125 58.78125zM721.25 804.65625H306.59375c-32.4375 0-58.78125-26.34375-58.78125-58.78125v-45.9375H780.125v45.9375c-0.09375 32.4375-26.34375 58.78125-58.875 58.78125z"  horiz-adv-x="1024" />

    
    <glyph glyph-name="shouyedianpujishishangcheng" unicode="&#58907;" d="M1004.8 537.6l-96 128a96 96 0 0 1-12.8 13.44V832a64 64 0 0 1-64 64H192a64 64 0 0 1-64-64v-152.96a96 96 0 0 1-12.8-13.44l-96-128A96 96 0 0 1 0 480v-32a96 96 0 0 1 96-96v-416a64 64 0 0 1 64-64h704a64 64 0 0 1 64 64V352a96 96 0 0 1 96 96v32a96 96 0 0 1-19.2 57.6zM832 832v-128H192V832zM326.08 416H192l128 224h70.08z m96 224h73.92v-224h-136.64z m105.92 0h72.64l64-224H528z m105.92 0H704l128-224h-134.08zM64 448v32a32 32 0 0 0 6.4 19.2l96 128A32 32 0 0 0 192 640h91.2l-128-224H96a32 32 0 0 0-32 32z m576-512h-240V256H640z m224 0h-192V256a32 32 0 0 1-32 32h-240a32 32 0 0 1-32-32v-320H160V352h704z m96 512a32 32 0 0 0-32-32h-59.2l-128 224H832a32 32 0 0 0 25.6-12.8l96-128a32 32 0 0 0 6.4-19.2z"  horiz-adv-x="1024" />

    
    <glyph glyph-name="shequfuwuzhan" unicode="&#59129;" d="M890.1 15H212.8c-12.8 0-23.2 10.4-23.2 23.2v74.2h700.5V15zM927.1 231.4H162.8c-10.6 0-19.2 8.6-19.2 19.2v32.5H927l0.1-51.7zM910.2 318.1H114c-27 0-49-22-49-49v-118c0-24.6 18.3-45.1 42-48.5v-113.4c0-29.9 24.3-54.1 54.1-54.1H863c29.9 0 54.1 24.3 54.1 54.1V102.7c23.7 3.4 42 23.8 42 48.5v118c0.1 26.9-21.9 48.9-48.9 48.9z m-33-328.9c0-7.8-6.3-14.1-14.1-14.1H161.2c-7.8 0-14.1 6.3-14.1 14.1V101.1h730.1v-111.9z m42 161.9c0-4.9-4-9-9-9H114c-4.9 0-9 4-9 9v118c0 4.9 4 9 9 9h796.2c4.9 0 9-4 9-9v-118zM307.2 382.7h411.5c11.2 0 20.3 9.5 20.3 21.1l-67.7 198c0 11.6-9.1 21.1-20.3 21.1H524.7c52.7 6.3 93.6 51.1 93.6 105.4 0 58.7-47.5 106.2-106.2 106.2S405.9 787 405.9 728.3c0-54.4 40.9-99.2 93.6-105.4H374.9c-11.2 0-20.3-9.5-20.3-21.1l-67.7-198c0-11.6 9.1-21.1 20.3-21.1zM480 581.6c0 7.2 7.1 13 15.7 13h30.5c8.6 0 15.7-5.9 15.7-13l-13.1-31.1 13.1-99.7c0-7.2-20.1-45.5-28.8-45.5h-4.4c-8.6 0-28.8 38.4-28.8 45.5L493.1 551 480 581.6zM670.4 231.4H373.2c-5.5 0-10-4.5-10-10v-20c0-5.5 4.5-10 10-10h297.2c5.5 0 10 4.5 10 10v20c0 5.5-4.5 10-10 10z"  horiz-adv-x="1024" />

    
    <glyph glyph-name="gengduo2" unicode="&#59073;" d="M735.1 385.2L368.4 751.3l-96.7-96.8 268.6-268.6-268.6-268.8 96.7-96.7 366.7 364.8-11.3 0.7z"  horiz-adv-x="1024" />

    
    <glyph glyph-name="shouye-" unicode="&#58899;" d="M511.990608-128C225.275867-128-7.154306 108.905853 0.169533 397.248113 7.222119 675.384468 238.262119 898.354682 516.500194 895.981216a508.294782 508.294782 0 0 0 277.186968-84.359777 16.512545 16.512545 0 0 0 4.340053-23.327784A16.478638 16.478638 0 0 0 775.445378 784.089229a479.033332 479.033332 0 0 1-742.555915-400.098621c0-264.098996 214.866522-478.965518 478.965518-478.965518s479.101145 214.866522 479.101145 478.965518A473.438732 473.438732 0 0 1 945.995891 586.684638a16.580358 16.580358 0 0 0 7.425559 21.801984 16.546451 16.546451 0 0 0 22.446211-7.662906A506.192569 506.192569 0 0 0 1023.981216 383.990608c0-282.306874-229.683734-511.990608-511.990608-511.990608zM927.00816 672.638028m-18.648664 0a18.648665 18.648665 0 1 1 37.297329 0 18.648665 18.648665 0 1 1-37.297329 0ZM511.651541 715.021356a325.503963 325.503963 0 1 1 325.503963-325.503962 325.503963 325.503963 0 0 1-325.503963 325.503962z m256.402184-353.985559h-56.929287v-199.43899a28.54941 28.54941 0 0 0-28.54941-28.515504h-85.54651a28.515503 28.515503 0 0 0-28.481597 28.515504V275.489287h-113.960293v-113.926387a28.413783 28.413783 0 0 0-28.413784-28.413783h-85.478696a28.44769 28.44769 0 0 0-28.481597 28.413783v199.472897H255.283264a28.54941 28.54941 0 0 0-28.44769 28.54941 29.66833 29.66833 0 0 0 10.171999 21.903704c98.498855 82.325377 274.643968 234.464573 274.643968 234.464573s176.111206-152.139196 273.762395-234.566293a27.871277 27.871277 0 0 0 10.917946-21.93761 28.413783 28.413783 0 0 0-28.278157-28.413784z"  horiz-adv-x="1024" />

    
    <glyph glyph-name="daifahuo" unicode="&#58890;" d="M887.466667-38.4H136.533333C96-38.4 64-12.8 64 21.333333V746.666667c0 34.133333 32 59.733333 72.533333 59.733333h753.066667C928 806.4 960 780.8 960 746.666667v-725.333334c0-34.133333-32-59.733333-72.533333-59.733333zM115.2 21.333333c0-2.133333 8.533333-8.533333 21.333333-8.533333h753.066667c12.8 0 21.333333 6.4 21.333333 8.533333V746.666667c0 2.133333-8.533333 8.533333-21.333333 8.533333H136.533333c-12.8 0-21.333333-6.4-21.333333-8.533333v-725.333334zM106.666667 535.466667h243.2v-53.333334H106.666667zM691.2 535.466667h243.2v-53.333334H691.2zM174.933333 422.4h93.866667v-93.866667H174.933333zM676.266667 288c-4.266667 0-10.666667 2.133333-14.933334 4.266667l-145.066666 93.866666-145.066667-93.866666c-8.533333-4.266667-19.2-6.4-27.733333 0-8.533333 4.266667-12.8 12.8-12.8 23.466666V759.466667H384v-394.666667l119.466667 76.8c8.533333 6.4 19.2 6.4 27.733333 0l119.466667-76.8V759.466667H704v-443.733334c0-10.666667-4.266667-19.2-12.8-23.466666-6.4-2.133333-10.666667-4.266667-14.933333-4.266667z"  horiz-adv-x="1024" />

    
    <glyph glyph-name="shouhou" unicode="&#58895;" d="M870.4 785.066667h-256v-53.333334h256c23.466667 0 42.666667-14.933333 42.666667-34.133333V21.333333c0-19.2-19.2-34.133333-42.666667-34.133333H153.6c-23.466667 0-42.666667 14.933333-42.666667 34.133333V699.733333c0 19.2 19.2 34.133333 42.666667 34.133334h192l-38.4-25.6 29.866667-44.8L448 736c6.4 4.266667 10.666667 12.8 12.8 21.333333 0 8.533333-4.266667 17.066667-10.666667 21.333334l-110.933333 81.066666-32-42.666666 44.8-32H153.6c-53.333333 0-96-38.4-96-85.333334V21.333333c0-49.066667 42.666667-87.466667 96-87.466666h716.8c53.333333 0 96 38.4 96 87.466666V699.733333c0 46.933333-42.666667 85.333333-96 85.333334zM695.466667 313.6h-153.6v78.933333h147.2v59.733334h-130.133334l108.8 108.8-38.4 38.4-117.333333-117.333334-117.333333 117.333334-38.4-38.4 108.8-108.8h-130.133334v-59.733334h147.2v-78.933333h-153.6v-61.866667h153.6v-174.933333h59.733334v174.933333h153.6z"  horiz-adv-x="1024" />

    
    <glyph glyph-name="fenlei1" unicode="&#58906;" d="M473.6 405.333333h-181.333333C177.066667 405.333333 85.333333 499.2 85.333333 614.4s93.866667 209.066667 209.066667 209.066667 209.066667-93.866667 209.066667-209.066667v-181.333333c-2.133333-14.933333-14.933333-27.733333-29.866667-27.733334zM292.266667 768c-85.333333 0-153.6-70.4-153.6-155.733333s70.4-153.6 153.6-153.6H448v153.6C448 699.733333 377.6 768 292.266667 768zM740.266667 405.333333h-181.333334c-14.933333 0-25.6 12.8-25.6 25.6v181.333334c0 115.2 93.866667 209.066667 209.066667 209.066666s209.066667-93.866667 209.066667-209.066666-96-206.933333-211.2-206.933334z m-155.733334 53.333334h153.6c85.333333 0 153.6 70.4 153.6 153.6S825.6 768 740.266667 768s-153.6-70.4-153.6-155.733333v-153.6zM292.266667-42.666667C177.066667-42.666667 85.333333 49.066667 85.333333 164.266667s93.866667 209.066667 209.066667 209.066666h181.333333c14.933333 0 25.6-12.8 25.6-25.6v-181.333333c0-117.333333-93.866667-209.066667-209.066666-209.066667z m0 362.666667c-85.333333 0-153.6-70.4-153.6-153.6s70.4-153.6 153.6-153.6 153.6 70.4 153.6 153.6V320h-153.6zM740.266667-42.666667c-115.2 0-209.066667 93.866667-209.066667 209.066667v181.333333c0 14.933333 12.8 25.6 25.6 25.6h181.333333c115.2 0 209.066667-93.866667 209.066667-209.066666S855.466667-42.666667 740.266667-42.666667z m-155.733334 362.666667v-153.6c0-85.333333 70.4-153.6 153.6-153.6s153.6 70.4 153.6 153.6-66.133333 153.6-151.466666 153.6h-155.733334z"  horiz-adv-x="1024" />

    
    <glyph glyph-name="shouye3" unicode="&#58896;" d="M449.7 695.8c-8.2 1.2-15.8-4.4-17-12.6l-42.4-284.1c-1.2-8.2 4.4-15.8 12.6-17 0.8-0.1 1.5-0.2 2.2-0.2 7.3 0 13.7 5.3 14.8 12.8l42.4 284.1c1.2 8.2-4.4 15.8-12.6 17zM634.4 399.1L592 683.2c-1.2 8.2-8.9 13.8-17 12.6-8.2-1.2-13.8-8.9-12.6-17l42.4-284.1c1.1-7.4 7.5-12.8 14.8-12.8 0.7 0 1.5 0.1 2.2 0.2 8.2 1.2 13.8 8.8 12.6 17zM769 331.1c-16.6 0-30-13.4-30-30v-220.4c0-22.1-17.9-40-40-40h-62.2V144c0 55.1-44.9 100-100 100h-49.5c-55.1 0-100-44.9-100-100v-103.2H325c-22.1 0-40 17.9-40 40V301.1c0 16.6-13.4 30-30 30s-30-13.4-30-30v-220.4c0-55.1 44.9-100 100-100h122.2V144c0 22.1 17.9 40 40 40h49.5c22.1 0 40-17.9 40-40v-163.2H699c55.1 0 100 44.9 100 100V301.1c0 16.6-13.4 30-30 30zM908.2 460.6c-15.8 4.9-32.6-3.9-37.6-19.7-5-15.8 3.9-32.6 19.7-37.6 6.3-2 9.9-8.8 7.9-15.1-1.3-4.1-4.3-6.2-5.9-7.1-1.7-0.9-5-2.1-9.2-0.8-3.8 1.2-6.8 4.2-8 8.1-0.8 2.6-1.9 4.9-3.2 7.1L736.4 709.3c0 0.1-0.1 0.2-0.1 0.3-1.4 4.1-0.3 7.5 0.5 9.2 0.8 1.7 2.8 4.7 6.9 6.2 4.1 1.4 7.5 0.3 9.2-0.5 1.7-0.8 4.7-2.8 6.2-6.9 1.3-3.8 0.7-8-1.7-11.2-9.9-13.3-7.1-32.1 6.2-42 5.4-4 11.6-5.9 17.8-5.9 9.2 0 18.2 4.2 24.1 12.1 14.3 19.2 18.1 44.2 10.1 66.8-6.4 18.2-19.4 32.8-36.8 41.1-17.3 8.3-36.9 9.4-55.1 3-18.2-6.4-32.8-19.4-41.1-36.8-3.7-7.8-6-16-6.8-24.3H347c-0.8 8.3-3.1 16.6-6.8 24.3-8.3 17.3-22.9 30.4-41.1 36.8-18.2 6.4-37.7 5.3-55.1-3-17.3-8.3-30.4-22.9-36.8-41.1-7.9-22.6-4.1-47.6 10.1-66.8 5.9-7.9 14.9-12.1 24.1-12.1 6.2 0 12.5 1.9 17.8 5.9 13.3 9.9 16.1 28.7 6.2 42-2.4 3.2-3 7.4-1.7 11.2 1.4 4.1 4.5 6.1 6.2 6.9 1.7 0.8 5.1 1.9 9.2 0.5s6.1-4.5 6.9-6.2c0.8-1.7 1.9-5.1 0.5-9.2 0-0.1-0.1-0.2-0.1-0.3L151 395.5c-1.3-2.2-2.4-4.6-3.2-7.1-1.2-3.9-4.1-6.9-8-8.1-4.1-1.3-7.5 0-9.2 0.8-1.7 0.9-4.6 2.9-5.9 7.1-2 6.3 1.6 13.1 7.9 15.1 15.8 5 24.6 21.8 19.7 37.6-5 15.8-21.8 24.6-37.6 19.7-37.9-11.9-59.1-52.4-47.2-90.3 5.8-18.4 18.3-33.4 35.4-42.3 10.5-5.5 21.8-8.2 33.3-8.2 7.2 0 14.5 1.1 21.6 3.3 18.8 5.9 34.1 19 42.8 36.3h621.8c8.7-17.2 24-30.4 42.8-36.3 7.1-2.2 14.4-3.3 21.6-3.3 11.5 0 22.9 2.8 33.3 8.2 17.1 8.9 29.6 23.9 35.4 42.3 11.8 37.9-9.4 78.4-47.3 90.3z m-681.6-41.3l104.1 241.1h361.4l104.1-241.1H226.6z"  horiz-adv-x="1024" />

    


  </font>
</defs>
</svg>
